<svg id="svg" version="1.1" xmlns="http://www.w3.org/2000/svg" xmlns:xlink="http://www.w3.org/1999/xlink" width="400" height="400" viewBox="0, 0, 400,400"><g id="svgg"><path id="path0" d="M169.620 60.282 C 169.277 60.849,60.343 338.099,60.033 339.193 C 59.789 340.054,61.607 340.104,93.045 340.104 L 126.315 340.104 138.632 305.339 L 150.949 270.573 199.999 270.573 L 249.049 270.573 261.373 305.337 L 273.698 340.101 306.901 340.102 C 325.163 340.103,340.101 339.928,340.098 339.714 C 340.094 339.499,315.412 276.510,285.248 199.740 L 230.404 60.156 200.131 60.022 C 183.481 59.948,169.751 60.065,169.620 60.282 M210.056 155.208 C 220.020 184.868,232.813 223.837,232.813 224.529 C 232.813 224.805,219.184 225.000,199.944 225.000 C 173.876 225.000,167.123 224.865,167.302 224.349 C 181.597 183.134,200.862 128.807,201.088 129.070 C 201.257 129.266,205.292 141.029,210.056 155.208 " stroke="none" fill="#000000" fill-rule="evenodd"></path></g></svg>