<svg xmlns="http://www.w3.org/2000/svg" width="19" height="19" viewBox="0 0 19 19">
    <g fill="none" fill-rule="evenodd">
        <g>
            <g>
                <g>
                    <g>
                        <g>
                            <path fill="#FFF" d="M10 3c3.866 0 7 3.134 7 7 0 1.572-.518 3.024-1.394 4.192l5.465 5.465-1.414 1.414-5.466-5.464C13.023 16.482 11.571 17 10 17c-3.866 0-7-3.134-7-7s3.134-7 7-7zm0 2c-2.761 0-5 2.239-5 5s2.239 5 5 5 5-2.239 5-5-2.239-5-5-5z" transform="translate(-1307 -448) translate(1019 434) translate(0 1) translate(18 10) translate(267)"/>
                        </g>
                    </g>
                </g>
            </g>
        </g>
    </g>
</svg>
