<svg id="svg" version="1.1" xmlns="http://www.w3.org/2000/svg" xmlns:xlink="http://www.w3.org/1999/xlink" width="400" height="400" viewBox="0, 0, 400,400"><g id="svgg"><path id="path0" d="M0.000 200.000 L 0.000 400.000 200.000 400.000 L 400.000 400.000 400.000 200.000 L 400.000 0.000 200.000 0.000 L 0.000 0.000 0.000 200.000 M223.660 115.100 C 223.935 115.375,224.491 115.600,224.896 115.600 C 226.337 115.600,230.000 120.292,230.000 122.137 C 230.000 122.476,230.180 122.864,230.400 123.000 C 230.620 123.136,230.801 123.552,230.802 123.924 C 230.804 124.296,231.074 125.116,231.402 125.746 C 231.731 126.376,232.000 127.191,232.000 127.557 C 232.000 127.923,232.244 128.577,232.542 129.011 C 232.840 129.445,233.182 130.250,233.301 130.800 C 233.542 131.906,234.248 133.930,235.066 135.860 C 235.360 136.554,235.600 137.398,235.600 137.737 C 235.600 138.076,235.766 138.455,235.969 138.581 C 236.172 138.706,236.459 139.359,236.607 140.032 C 236.755 140.704,237.127 141.737,237.435 142.327 C 237.743 142.917,237.996 143.775,237.998 144.233 C 237.999 144.692,238.123 145.190,238.274 145.341 C 238.581 145.648,239.478 147.976,239.993 149.800 C 240.179 150.460,240.715 151.990,241.184 153.200 C 241.653 154.410,242.402 156.480,242.847 157.800 C 243.293 159.120,243.827 160.560,244.034 161.000 C 244.592 162.183,247.626 170.840,247.889 172.000 C 248.014 172.550,248.360 173.355,248.658 173.789 C 248.956 174.223,249.200 174.892,249.200 175.275 C 249.200 175.659,249.455 176.564,249.767 177.286 C 250.078 178.009,250.618 179.257,250.967 180.060 C 251.315 180.864,251.600 181.798,251.600 182.137 C 251.600 182.476,251.764 182.854,251.965 182.978 C 252.166 183.103,252.452 183.922,252.600 184.800 C 252.748 185.678,253.034 186.497,253.235 186.622 C 253.436 186.746,253.600 187.124,253.600 187.463 C 253.600 187.802,253.852 188.646,254.160 189.340 C 254.468 190.033,254.813 190.960,254.926 191.400 C 255.192 192.437,255.990 194.666,256.666 196.260 C 256.960 196.954,257.200 197.698,257.200 197.915 C 257.200 198.131,257.469 198.824,257.798 199.454 C 258.126 200.084,258.396 200.885,258.398 201.233 C 258.399 201.582,258.514 201.980,258.653 202.120 C 258.948 202.414,261.146 208.531,261.485 210.000 C 261.612 210.550,261.960 211.355,262.258 211.789 C 262.556 212.223,262.800 212.877,262.800 213.243 C 262.800 213.609,263.069 214.424,263.398 215.054 C 263.726 215.684,263.996 216.594,263.998 217.076 C 263.999 217.558,264.166 218.055,264.369 218.181 C 264.572 218.306,264.859 218.959,265.007 219.632 C 265.155 220.304,265.527 221.337,265.835 221.927 C 266.143 222.517,266.396 223.285,266.398 223.633 C 266.399 223.982,266.523 224.390,266.674 224.541 C 266.982 224.848,267.880 227.179,268.392 229.000 C 268.789 230.409,269.531 232.514,270.227 234.200 C 270.499 234.860,271.351 237.200,272.121 239.400 C 272.891 241.600,274.096 244.930,274.798 246.800 C 275.499 248.670,276.173 250.650,276.295 251.200 C 276.417 251.750,276.760 252.555,277.058 252.989 C 277.356 253.423,277.600 254.092,277.600 254.475 C 277.600 255.098,278.318 257.034,279.221 258.851 C 279.400 259.209,279.668 260.156,279.818 260.955 C 279.968 261.755,280.250 262.507,280.445 262.628 C 280.640 262.749,280.801 263.152,280.802 263.524 C 280.804 263.896,281.074 264.716,281.402 265.346 C 283.210 268.811,281.323 273.582,277.938 274.105 C 273.644 274.768,238.981 274.186,237.600 273.428 C 235.167 272.092,233.463 269.684,232.203 265.800 C 231.774 264.480,231.195 262.950,230.914 262.400 C 230.634 261.850,230.404 261.096,230.402 260.724 C 230.401 260.352,230.220 259.936,230.000 259.800 C 229.780 259.664,229.599 259.248,229.598 258.876 C 229.596 258.504,229.361 257.750,229.074 257.200 C 228.788 256.650,228.131 254.909,227.614 253.330 C 226.918 251.205,226.457 250.402,225.837 250.236 C 224.580 249.898,173.069 249.966,172.556 250.306 C 172.137 250.584,170.715 254.011,168.203 260.800 C 167.592 262.450,166.847 264.367,166.546 265.060 C 166.246 265.754,166.000 266.509,166.000 266.739 C 166.000 268.490,162.874 272.561,160.800 273.511 C 158.689 274.479,121.695 274.673,119.702 273.727 C 116.945 272.418,115.622 267.391,117.413 265.024 C 117.736 264.596,118.000 263.866,118.000 263.400 C 118.000 262.934,118.264 262.204,118.587 261.776 C 118.910 261.349,119.180 260.606,119.187 260.124 C 119.194 259.642,119.360 259.149,119.555 259.028 C 119.750 258.907,120.032 258.155,120.182 257.355 C 120.332 256.556,120.611 255.609,120.802 255.251 C 121.684 253.595,122.400 251.825,122.400 251.299 C 122.400 250.981,122.652 250.154,122.960 249.460 C 123.268 248.767,123.613 247.840,123.726 247.400 C 123.840 246.960,124.323 245.610,124.800 244.400 C 125.277 243.190,125.760 241.840,125.874 241.400 C 125.987 240.960,126.332 240.033,126.640 239.340 C 126.948 238.646,127.200 237.821,127.200 237.506 C 127.200 237.191,127.310 236.824,127.444 236.690 C 127.681 236.452,129.067 232.671,130.996 227.000 C 131.520 225.460,132.329 223.210,132.794 222.000 C 133.259 220.790,134.281 217.910,135.064 215.600 C 135.848 213.290,136.649 211.229,136.844 211.020 C 137.040 210.811,137.200 210.298,137.200 209.880 C 137.200 209.463,137.452 208.554,137.760 207.860 C 138.068 207.167,138.413 206.240,138.526 205.800 C 138.640 205.360,139.123 204.010,139.600 202.800 C 140.077 201.590,140.560 200.240,140.674 199.800 C 140.787 199.360,141.132 198.433,141.440 197.740 C 141.748 197.046,142.000 196.202,142.000 195.863 C 142.000 195.524,142.180 195.136,142.400 195.000 C 142.620 194.864,142.800 194.476,142.800 194.137 C 142.800 193.798,143.052 192.954,143.360 192.260 C 143.668 191.567,144.018 190.640,144.136 190.200 C 144.339 189.448,145.661 185.718,148.177 178.800 C 148.777 177.150,149.430 175.260,149.628 174.600 C 149.826 173.940,150.144 173.040,150.334 172.600 C 150.525 172.160,150.900 171.170,151.168 170.400 C 151.436 169.630,152.031 167.920,152.489 166.600 C 152.947 165.280,153.565 163.633,153.861 162.940 C 154.158 162.246,154.400 161.427,154.400 161.120 C 154.400 160.812,154.563 160.389,154.763 160.180 C 154.962 159.971,155.308 159.170,155.531 158.400 C 156.036 156.653,156.770 154.581,157.466 152.940 C 157.760 152.246,158.000 151.402,158.000 151.063 C 158.000 150.724,158.180 150.336,158.400 150.200 C 158.620 150.064,158.800 149.676,158.800 149.337 C 158.800 148.998,159.052 148.154,159.360 147.460 C 159.668 146.767,160.013 145.840,160.126 145.400 C 160.392 144.363,161.190 142.134,161.866 140.540 C 162.160 139.846,162.400 139.102,162.400 138.885 C 162.400 138.669,162.669 137.976,162.998 137.346 C 163.326 136.716,163.596 135.896,163.598 135.524 C 163.599 135.152,163.764 134.746,163.965 134.622 C 164.166 134.497,164.452 133.678,164.600 132.800 C 164.748 131.922,165.034 131.103,165.235 130.978 C 165.436 130.854,165.601 130.448,165.602 130.076 C 165.604 129.704,165.874 128.884,166.202 128.254 C 166.531 127.624,166.800 126.804,166.800 126.431 C 166.800 126.058,167.064 125.404,167.387 124.976 C 167.710 124.549,167.980 123.908,167.987 123.551 C 168.051 120.314,172.456 115.548,176.200 114.666 C 178.201 114.194,223.166 114.606,223.660 115.100 M198.700 163.230 C 198.315 163.909,198.000 164.714,198.000 165.019 C 198.000 165.324,197.744 166.164,197.431 166.886 C 197.118 167.609,196.281 170.090,195.571 172.400 C 194.860 174.710,194.126 176.771,193.939 176.980 C 193.753 177.189,193.600 177.702,193.600 178.120 C 193.600 178.537,193.359 179.446,193.065 180.140 C 192.169 182.250,189.149 191.322,188.917 192.600 C 188.798 193.260,188.563 193.980,188.396 194.200 C 188.229 194.420,187.961 195.230,187.800 196.000 C 187.639 196.770,187.386 197.580,187.238 197.800 C 187.089 198.020,186.640 199.280,186.240 200.600 C 185.840 201.920,185.289 203.630,185.015 204.400 C 183.715 208.064,183.183 210.049,183.405 210.407 C 183.717 210.913,214.377 210.929,215.174 210.424 C 215.600 210.155,215.635 209.924,215.310 209.530 C 215.069 209.239,214.745 208.323,214.590 207.496 C 214.436 206.668,214.150 205.893,213.955 205.772 C 213.760 205.651,213.600 205.186,213.600 204.737 C 213.600 204.288,213.360 203.354,213.066 202.660 C 212.390 201.066,211.592 198.837,211.326 197.800 C 211.213 197.360,210.868 196.433,210.560 195.740 C 210.252 195.046,210.000 194.212,210.000 193.885 C 210.000 193.559,209.731 192.776,209.402 192.146 C 209.074 191.516,208.804 190.606,208.802 190.124 C 208.801 189.642,208.640 189.149,208.445 189.028 C 208.250 188.907,207.974 188.184,207.830 187.421 C 207.687 186.658,207.308 185.531,206.988 184.917 C 206.667 184.303,206.404 183.431,206.402 182.980 C 206.401 182.529,206.257 181.989,206.082 181.780 C 205.907 181.571,205.438 180.320,205.038 179.000 C 204.639 177.680,204.071 175.970,203.775 175.200 C 203.480 174.430,202.929 172.810,202.551 171.600 C 202.173 170.390,201.624 168.833,201.332 168.140 C 201.039 167.446,200.800 166.531,200.800 166.106 C 200.800 165.681,200.665 165.199,200.500 165.034 C 200.335 164.869,200.020 164.118,199.800 163.365 L 199.400 161.995 198.700 163.230 " stroke="none" fill="#ececec" fill-rule="evenodd"></path><path id="path1" d="M175.000 115.926 C 172.255 117.038,170.583 119.063,168.995 123.200 C 168.615 124.190,168.164 125.360,167.994 125.800 C 167.047 128.239,165.205 133.552,164.976 134.504 C 164.831 135.111,164.551 135.706,164.356 135.827 C 164.160 135.948,163.999 136.352,163.998 136.724 C 163.996 137.096,163.726 137.916,163.398 138.546 C 163.069 139.176,162.800 139.996,162.800 140.369 C 162.800 140.742,162.536 141.396,162.213 141.824 C 161.890 142.251,161.614 143.050,161.600 143.600 C 161.586 144.150,161.310 144.949,160.987 145.376 C 160.664 145.804,160.400 146.458,160.400 146.831 C 160.400 147.204,160.131 148.024,159.802 148.654 C 159.474 149.284,159.204 150.104,159.202 150.476 C 159.201 150.848,159.020 151.264,158.800 151.400 C 158.580 151.536,158.400 152.052,158.400 152.547 C 158.400 153.042,158.136 153.796,157.813 154.224 C 157.490 154.651,157.220 155.333,157.213 155.740 C 157.206 156.146,156.960 157.046,156.666 157.740 C 155.990 159.334,155.192 161.563,154.926 162.600 C 154.813 163.040,154.468 163.967,154.160 164.660 C 153.852 165.354,153.600 166.098,153.600 166.315 C 153.600 166.531,153.331 167.224,153.002 167.854 C 152.674 168.484,152.404 169.304,152.402 169.676 C 152.401 170.048,152.220 170.464,152.000 170.600 C 151.780 170.736,151.600 171.124,151.600 171.463 C 151.600 171.802,151.360 172.646,151.066 173.340 C 150.270 175.217,149.570 177.238,149.204 178.711 C 149.026 179.433,148.705 180.243,148.493 180.511 C 148.281 180.780,148.010 181.450,147.891 182.000 C 147.771 182.550,147.099 184.530,146.397 186.400 C 145.694 188.270,144.941 190.430,144.723 191.200 C 144.504 191.970,144.162 192.771,143.963 192.980 C 143.763 193.189,143.600 193.612,143.600 193.920 C 143.600 194.227,143.360 195.046,143.066 195.740 C 142.270 197.617,141.570 199.638,141.204 201.111 C 141.026 201.833,140.705 202.643,140.493 202.911 C 140.281 203.180,140.011 203.850,139.894 204.400 C 139.660 205.500,138.960 207.512,138.134 209.460 C 137.840 210.154,137.600 210.998,137.600 211.337 C 137.600 211.676,137.420 212.064,137.200 212.200 C 136.980 212.336,136.800 212.724,136.800 213.063 C 136.800 213.402,136.548 214.246,136.240 214.940 C 135.932 215.633,135.587 216.560,135.474 217.000 C 135.360 217.440,134.877 218.790,134.400 220.000 C 133.923 221.210,133.440 222.560,133.326 223.000 C 133.213 223.440,132.868 224.367,132.560 225.060 C 132.252 225.754,132.000 226.598,132.000 226.937 C 132.000 227.276,131.836 227.654,131.635 227.778 C 131.434 227.903,131.148 228.722,131.000 229.600 C 130.852 230.478,130.566 231.297,130.365 231.422 C 130.164 231.546,130.000 231.895,130.000 232.198 C 130.000 232.500,129.793 233.255,129.540 233.874 C 128.622 236.119,126.740 241.424,126.515 242.400 C 126.388 242.950,126.040 243.755,125.742 244.189 C 125.444 244.623,125.200 245.277,125.200 245.643 C 125.200 246.009,124.931 246.824,124.602 247.454 C 124.274 248.084,124.004 248.904,124.002 249.276 C 124.001 249.648,123.820 250.064,123.600 250.200 C 123.380 250.336,123.199 250.752,123.198 251.124 C 123.196 251.496,122.926 252.316,122.598 252.946 C 122.269 253.576,121.999 254.386,121.998 254.746 C 121.996 255.106,121.726 255.916,121.398 256.546 C 121.069 257.176,120.800 257.991,120.800 258.357 C 120.800 258.723,120.556 259.377,120.258 259.811 C 119.960 260.245,119.618 261.050,119.498 261.600 C 119.378 262.150,118.933 263.503,118.509 264.606 C 117.016 268.490,117.286 272.377,119.051 272.395 C 119.299 272.398,119.726 272.670,120.000 273.000 C 120.430 273.518,123.058 273.600,139.149 273.600 C 159.819 273.599,160.613 273.510,162.689 270.948 C 163.201 270.317,163.788 269.590,163.994 269.334 C 164.199 269.078,164.485 268.401,164.628 267.830 C 164.771 267.260,165.049 266.694,165.244 266.573 C 165.440 266.452,165.600 265.948,165.600 265.453 C 165.600 264.958,165.864 264.204,166.187 263.776 C 166.510 263.349,166.780 262.691,166.787 262.314 C 166.794 261.936,167.095 260.946,167.455 260.114 C 168.574 257.531,168.744 257.086,169.791 254.000 C 170.351 252.350,171.142 250.550,171.548 250.000 L 172.286 249.000 199.009 248.897 C 227.973 248.786,227.582 248.758,227.613 250.909 C 227.620 251.399,227.890 252.149,228.213 252.576 C 228.536 253.004,228.800 253.769,228.800 254.276 C 228.800 254.784,228.960 255.200,229.155 255.200 C 229.351 255.200,229.626 255.812,229.766 256.560 C 230.000 257.808,230.681 259.542,231.626 261.295 C 231.832 261.677,232.000 262.317,232.000 262.718 C 232.000 263.119,232.264 263.796,232.587 264.224 C 232.910 264.651,233.180 265.292,233.187 265.649 C 233.238 268.262,236.158 271.905,239.000 272.902 C 242.013 273.960,276.569 273.968,278.780 272.911 C 281.858 271.441,282.124 268.812,279.747 263.340 C 279.446 262.646,279.200 261.827,279.200 261.520 C 279.200 261.212,279.037 260.789,278.837 260.580 C 278.638 260.371,278.296 259.570,278.077 258.800 C 277.859 258.030,277.108 255.870,276.409 254.000 C 275.709 252.130,274.985 249.993,274.800 249.251 C 274.614 248.509,274.268 247.708,274.031 247.471 C 273.794 247.234,273.600 246.662,273.600 246.200 C 273.600 245.738,273.449 245.189,273.264 244.980 C 273.078 244.771,272.524 243.340,272.032 241.800 C 271.540 240.260,270.882 238.433,270.569 237.740 C 270.256 237.046,270.000 236.202,270.000 235.863 C 270.000 235.524,269.820 235.136,269.600 235.000 C 269.380 234.864,269.200 234.476,269.200 234.137 C 269.200 233.798,268.948 232.954,268.640 232.260 C 268.332 231.567,267.987 230.640,267.874 230.200 C 267.760 229.760,267.277 228.410,266.800 227.200 C 266.323 225.990,265.840 224.640,265.726 224.200 C 265.613 223.760,265.268 222.833,264.960 222.140 C 264.652 221.446,264.400 220.602,264.400 220.263 C 264.400 219.924,264.220 219.536,264.000 219.400 C 263.780 219.264,263.599 218.848,263.598 218.476 C 263.596 218.104,263.326 217.284,262.998 216.654 C 262.669 216.024,262.399 215.214,262.398 214.854 C 262.396 214.494,262.126 213.684,261.798 213.054 C 261.469 212.424,261.194 211.614,261.187 211.254 C 261.180 210.894,260.910 210.251,260.587 209.824 C 260.264 209.396,260.000 208.728,260.000 208.337 C 260.000 207.704,259.288 205.777,258.379 203.949 C 258.200 203.591,257.932 202.644,257.782 201.845 C 257.632 201.045,257.350 200.293,257.155 200.172 C 256.960 200.051,256.799 199.648,256.798 199.276 C 256.796 198.904,256.526 198.084,256.198 197.454 C 255.869 196.824,255.600 196.131,255.600 195.915 C 255.600 195.698,255.348 194.954,255.040 194.260 C 254.732 193.567,254.382 192.640,254.264 192.200 C 254.145 191.760,253.394 189.600,252.595 187.400 C 251.796 185.200,251.039 183.040,250.913 182.600 C 250.787 182.160,250.551 181.620,250.388 181.400 C 250.226 181.180,249.965 180.403,249.808 179.673 C 249.652 178.943,249.273 177.863,248.965 177.273 C 248.657 176.683,248.404 175.896,248.402 175.524 C 248.401 175.152,248.220 174.736,248.000 174.600 C 247.780 174.464,247.600 174.076,247.600 173.737 C 247.600 173.398,247.348 172.554,247.040 171.860 C 246.732 171.167,246.387 170.240,246.274 169.800 C 246.160 169.360,245.677 168.010,245.200 166.800 C 244.723 165.590,244.240 164.240,244.126 163.800 C 244.013 163.360,243.668 162.433,243.360 161.740 C 243.052 161.046,242.800 160.202,242.800 159.863 C 242.800 159.524,242.620 159.136,242.400 159.000 C 242.180 158.864,242.000 158.476,242.000 158.137 C 242.000 157.798,241.760 156.954,241.466 156.260 C 240.648 154.330,239.942 152.306,239.701 151.200 C 239.582 150.650,239.240 149.845,238.942 149.411 C 238.644 148.977,238.400 148.308,238.400 147.925 C 238.400 147.311,237.714 145.448,236.802 143.587 C 236.637 143.250,236.372 142.383,236.213 141.660 C 236.054 140.937,235.673 139.863,235.365 139.273 C 235.057 138.683,234.804 137.896,234.802 137.524 C 234.801 137.152,234.620 136.736,234.400 136.600 C 234.180 136.464,234.000 135.986,234.000 135.538 C 234.000 135.090,233.755 134.246,233.455 133.662 C 232.797 132.379,231.998 130.163,231.701 128.800 C 231.582 128.250,231.240 127.445,230.942 127.011 C 230.644 126.577,230.400 125.923,230.400 125.557 C 230.400 125.191,230.131 124.376,229.802 123.746 C 229.474 123.116,229.204 122.307,229.202 121.949 C 229.201 121.591,228.930 121.074,228.600 120.800 C 228.270 120.526,228.000 120.084,228.000 119.818 C 228.000 118.994,225.070 116.354,223.896 116.119 C 223.284 115.997,222.686 115.740,222.568 115.548 C 222.131 114.840,176.792 115.200,175.000 115.926 M200.400 162.653 C 200.400 163.148,200.566 163.655,200.769 163.781 C 200.972 163.906,201.265 164.586,201.420 165.291 C 201.575 165.997,201.849 166.850,202.030 167.187 C 202.210 167.524,202.749 169.150,203.228 170.800 C 203.706 172.450,204.255 173.971,204.449 174.180 C 204.642 174.389,204.800 174.991,204.800 175.518 C 204.800 176.045,205.047 176.954,205.350 177.538 C 206.090 178.969,207.204 182.434,207.202 183.300 C 207.201 183.685,207.380 184.000,207.600 184.000 C 207.820 184.000,208.000 184.240,208.000 184.533 C 208.000 185.345,209.656 190.549,210.051 190.980 C 210.243 191.189,210.401 191.729,210.402 192.180 C 210.404 192.631,210.674 193.516,211.002 194.146 C 211.331 194.776,211.600 195.610,211.600 196.000 C 211.600 196.390,211.869 197.224,212.198 197.854 C 212.526 198.484,212.796 199.294,212.798 199.654 C 212.799 200.014,213.069 200.824,213.398 201.454 C 213.726 202.084,213.996 202.917,213.998 203.305 C 213.999 203.693,214.177 204.323,214.394 204.705 C 215.378 206.442,216.266 209.870,215.951 210.720 L 215.622 211.609 199.111 211.504 L 182.600 211.400 182.672 209.733 C 182.712 208.817,183.027 207.521,183.372 206.853 C 183.718 206.186,184.000 205.291,184.000 204.866 C 184.000 204.440,184.269 203.576,184.598 202.946 C 184.926 202.316,185.196 201.496,185.198 201.124 C 185.199 200.752,185.359 200.349,185.554 200.229 C 185.748 200.108,186.029 199.198,186.178 198.205 C 186.327 197.212,186.618 196.400,186.825 196.400 C 187.031 196.400,187.200 195.894,187.200 195.276 C 187.200 194.659,187.464 193.804,187.787 193.376 C 188.110 192.949,188.381 192.150,188.390 191.600 C 188.398 191.050,188.674 190.084,189.002 189.454 C 189.331 188.824,189.600 188.065,189.600 187.768 C 189.600 187.470,189.852 186.636,190.161 185.914 C 190.469 185.191,191.046 183.520,191.443 182.200 C 191.840 180.880,192.307 179.629,192.482 179.420 C 192.657 179.211,192.800 178.698,192.800 178.280 C 192.800 177.863,193.040 176.954,193.334 176.260 C 194.199 174.219,194.856 172.296,195.200 170.800 C 195.544 169.304,196.201 167.381,197.066 165.340 C 197.360 164.646,197.600 163.726,197.600 163.293 C 197.600 162.861,197.991 162.011,198.469 161.404 C 199.449 160.158,200.400 160.773,200.400 162.653 " stroke="none" fill="#050505" fill-rule="evenodd"></path><path id="path2" d="M187.900 114.700 C 194.115 114.762,204.285 114.762,210.500 114.700 C 216.715 114.638,211.630 114.587,199.200 114.587 C 186.770 114.587,181.685 114.638,187.900 114.700 M173.800 115.502 C 172.094 116.380,169.692 119.076,168.779 121.140 C 167.566 123.883,167.905 124.085,169.206 121.393 C 170.587 118.536,172.598 116.471,174.915 115.529 C 175.842 115.153,176.240 114.854,175.800 114.865 C 175.360 114.876,174.460 115.163,173.800 115.502 M225.000 116.066 C 225.440 116.308,226.303 116.974,226.918 117.545 C 227.947 118.501,228.327 119.171,230.124 123.200 C 230.468 123.970,230.760 124.296,230.774 123.924 C 230.788 123.552,230.620 123.136,230.400 123.000 C 230.180 122.864,230.000 122.476,230.000 122.137 C 230.000 120.299,226.329 115.588,224.916 115.612 C 224.276 115.623,224.285 115.671,225.000 116.066 M167.232 125.139 C 166.995 125.584,166.807 126.274,166.816 126.674 C 166.825 127.108,167.068 126.854,167.422 126.039 C 168.070 124.545,167.923 123.848,167.232 125.139 M230.802 125.054 C 230.798 125.795,231.967 128.259,231.984 127.546 C 231.993 127.186,231.731 126.376,231.402 125.746 C 231.074 125.116,230.804 124.804,230.802 125.054 M166.011 128.571 C 165.785 129.165,165.600 129.900,165.600 130.202 C 165.600 130.505,165.420 130.864,165.200 131.000 C 164.980 131.136,164.800 131.537,164.800 131.890 C 164.800 132.949,165.357 132.068,166.074 129.875 C 166.777 127.725,166.727 126.688,166.011 128.571 M232.000 128.678 C 232.000 128.915,232.269 129.624,232.598 130.254 C 233.075 131.171,233.193 131.240,233.185 130.600 C 233.179 130.160,232.910 129.451,232.587 129.024 C 232.264 128.596,232.000 128.441,232.000 128.678 M233.216 132.076 C 233.207 132.448,233.380 132.864,233.600 133.000 C 233.820 133.136,234.021 133.642,234.046 134.124 C 234.080 134.764,234.141 134.818,234.271 134.323 C 234.369 133.951,234.176 133.141,233.841 132.523 C 233.434 131.772,233.227 131.624,233.216 132.076 M164.446 133.476 C 164.421 133.958,164.220 134.464,164.000 134.600 C 163.780 134.736,163.607 135.152,163.616 135.524 C 163.627 135.976,163.834 135.828,164.241 135.077 C 164.576 134.459,164.769 133.649,164.671 133.277 C 164.541 132.782,164.480 132.836,164.446 133.476 M162.844 137.644 C 162.552 138.305,162.398 138.931,162.502 139.036 C 162.607 139.140,162.921 138.674,163.200 138.000 C 163.862 136.401,163.538 136.077,162.844 137.644 M235.358 137.600 C 235.447 138.150,235.913 139.590,236.394 140.800 C 236.874 142.010,237.357 143.360,237.467 143.800 C 237.577 144.240,237.813 144.960,237.992 145.400 C 238.170 145.840,238.683 147.190,239.132 148.400 C 239.581 149.610,239.960 150.291,239.974 149.914 C 239.997 149.293,239.277 147.337,238.351 145.505 C 238.158 145.123,237.999 144.493,237.998 144.105 C 237.996 143.717,237.726 142.884,237.398 142.254 C 237.069 141.624,236.800 140.931,236.800 140.715 C 236.800 140.498,236.546 139.754,236.236 139.060 C 235.926 138.367,235.565 137.530,235.434 137.200 C 235.303 136.870,235.269 137.050,235.358 137.600 M161.700 140.693 C 161.425 141.279,161.207 142.039,161.216 142.380 C 161.224 142.721,161.499 142.384,161.826 141.630 C 162.534 139.999,162.421 139.156,161.700 140.693 M160.437 144.311 C 160.153 144.998,160.014 145.793,160.128 146.080 C 160.246 146.374,160.351 146.244,160.368 145.780 C 160.386 145.329,160.600 144.760,160.845 144.515 C 161.090 144.270,161.214 143.843,161.122 143.566 C 161.030 143.289,160.721 143.624,160.437 144.311 M159.211 147.771 C 158.985 148.365,158.800 149.100,158.800 149.402 C 158.800 149.705,158.620 150.064,158.400 150.200 C 158.180 150.336,158.000 150.737,158.000 151.090 C 158.000 151.444,158.097 151.636,158.216 151.517 C 158.598 151.135,159.991 147.058,159.804 146.870 C 159.704 146.771,159.437 147.176,159.211 147.771 M240.000 151.267 C 240.000 151.597,240.123 151.990,240.274 152.141 C 240.563 152.429,241.018 153.613,242.606 158.200 C 243.658 161.240,244.092 162.439,246.004 167.600 C 246.696 169.470,247.413 171.540,247.597 172.200 C 247.781 172.860,248.318 174.390,248.791 175.600 C 249.265 176.810,250.102 179.150,250.652 180.800 C 251.662 183.833,252.400 185.143,252.400 183.904 C 252.400 183.543,252.220 183.136,252.000 183.000 C 251.780 182.864,251.600 182.476,251.600 182.137 C 251.600 181.798,251.315 180.864,250.967 180.060 C 250.618 179.257,250.078 178.009,249.767 177.286 C 249.455 176.564,249.200 175.659,249.200 175.275 C 249.200 174.892,248.956 174.223,248.658 173.789 C 248.360 173.355,248.014 172.550,247.889 172.000 C 247.626 170.840,244.592 162.183,244.034 161.000 C 243.827 160.560,243.293 159.120,242.847 157.800 C 240.914 152.070,240.000 149.974,240.000 151.267 M157.244 153.244 C 156.952 153.905,156.798 154.531,156.902 154.636 C 157.007 154.740,157.321 154.274,157.600 153.600 C 158.262 152.001,157.938 151.677,157.244 153.244 M156.085 156.573 C 155.386 158.108,155.492 158.817,156.213 157.433 C 156.548 156.791,156.765 156.096,156.696 155.888 C 156.627 155.680,156.352 155.988,156.085 156.573 M154.896 159.909 C 154.623 160.487,154.400 161.121,154.400 161.319 C 154.400 161.517,154.158 162.246,153.861 162.940 C 153.565 163.633,152.947 165.280,152.489 166.600 C 150.825 171.391,150.675 171.813,150.354 172.600 C 148.691 176.671,147.275 181.450,148.161 180.000 C 148.497 179.450,148.778 178.757,148.786 178.460 C 148.794 178.164,149.054 177.354,149.365 176.660 C 149.675 175.967,150.314 174.230,150.784 172.800 C 151.542 170.493,153.133 166.047,154.005 163.800 C 155.530 159.869,156.110 157.337,154.896 159.909 M198.660 162.283 C 197.929 163.697,196.808 166.815,196.820 167.400 C 196.834 168.077,197.971 165.845,197.986 165.110 C 198.008 164.010,199.589 161.598,199.630 162.600 C 199.648 163.040,199.752 163.182,199.860 162.915 C 200.384 161.624,199.297 161.052,198.660 162.283 M200.828 166.140 C 200.813 166.546,201.045 167.446,201.344 168.140 C 201.643 168.833,202.279 170.660,202.757 172.200 C 203.649 175.072,204.382 176.638,204.394 175.695 C 204.397 175.417,204.244 174.877,204.054 174.495 C 203.622 173.630,202.834 171.385,202.405 169.800 C 201.810 167.603,200.857 165.390,200.828 166.140 M195.820 170.291 C 195.437 171.561,194.767 173.590,194.330 174.800 C 193.893 176.010,193.393 177.540,193.219 178.200 C 193.046 178.860,192.719 179.850,192.494 180.400 C 192.269 180.950,191.758 182.480,191.359 183.800 C 190.959 185.120,190.506 186.380,190.352 186.600 C 190.198 186.820,189.945 187.677,189.790 188.504 C 189.636 189.332,189.350 190.107,189.155 190.228 C 188.960 190.349,188.803 190.752,188.806 191.124 C 188.817 192.374,189.494 190.825,191.038 186.009 C 191.851 183.474,192.760 180.833,193.058 180.140 C 193.356 179.446,193.600 178.537,193.600 178.120 C 193.600 177.702,193.753 177.189,193.939 176.980 C 194.422 176.440,196.950 168.416,196.712 168.179 C 196.604 168.071,196.202 169.021,195.820 170.291 M204.438 176.800 C 204.424 177.504,205.764 181.497,206.141 181.875 C 206.284 182.017,206.400 182.481,206.400 182.906 C 206.400 183.331,206.654 184.246,206.964 184.940 C 207.274 185.633,207.635 186.470,207.766 186.800 C 208.210 187.920,207.684 185.408,207.180 184.000 C 206.904 183.230,206.586 182.330,206.474 182.000 C 205.059 177.862,204.449 176.302,204.438 176.800 M147.196 181.233 C 147.194 181.325,146.554 183.200,145.772 185.400 C 144.991 187.600,144.255 189.760,144.136 190.200 C 144.018 190.640,143.668 191.567,143.360 192.260 C 143.052 192.954,142.800 193.798,142.800 194.137 C 142.800 194.476,142.620 194.864,142.400 195.000 C 142.180 195.136,142.005 195.552,142.012 195.924 C 142.027 196.774,142.678 195.766,143.207 194.071 C 143.391 193.482,144.101 191.470,144.786 189.600 C 146.987 183.589,147.645 181.512,147.420 181.287 C 147.299 181.166,147.198 181.142,147.196 181.233 M252.446 185.207 C 252.421 185.540,252.929 187.160,253.577 188.807 C 254.224 190.453,254.764 191.506,254.777 191.146 C 254.789 190.786,254.531 189.976,254.202 189.346 C 253.874 188.716,253.604 187.921,253.602 187.580 C 253.601 187.239,253.437 186.789,253.239 186.580 C 253.040 186.371,252.791 185.840,252.685 185.400 C 252.573 184.933,252.473 184.852,252.446 185.207 M208.014 188.076 C 208.006 188.448,208.156 188.849,208.347 188.968 C 208.539 189.086,208.809 189.896,208.949 190.768 C 209.196 192.314,210.000 193.445,210.000 192.247 C 210.000 191.917,209.820 191.536,209.600 191.400 C 209.380 191.264,209.194 190.758,209.186 190.276 C 209.168 189.187,208.035 187.060,208.014 188.076 M254.814 192.254 C 254.806 192.504,255.063 193.314,255.384 194.054 C 255.788 194.983,255.969 195.152,255.970 194.600 C 255.972 193.763,254.839 191.464,254.814 192.254 M187.437 195.724 C 186.800 197.642,186.395 199.329,186.539 199.472 C 186.683 199.616,186.800 199.354,186.800 198.890 C 186.800 198.427,186.960 197.949,187.155 197.828 C 187.350 197.707,187.636 196.932,187.790 196.104 C 187.945 195.277,188.250 194.384,188.469 194.119 C 188.687 193.855,188.805 193.323,188.731 192.937 C 188.657 192.551,188.074 193.805,187.437 195.724 M210.032 193.674 C 209.987 194.628,210.771 196.562,211.078 196.255 C 211.219 196.114,211.137 195.594,210.897 195.099 C 210.656 194.605,210.370 193.930,210.261 193.600 C 210.102 193.119,210.057 193.133,210.032 193.674 M141.300 197.885 C 140.583 199.426,140.686 200.428,141.417 199.025 C 141.754 198.379,141.978 197.617,141.915 197.331 C 141.852 197.044,141.575 197.294,141.300 197.885 M211.232 197.400 C 211.230 197.840,211.486 198.650,211.800 199.200 C 212.530 200.478,212.534 200.204,211.812 198.200 C 211.495 197.320,211.234 196.960,211.232 197.400 M257.202 198.876 C 257.212 199.476,260.345 207.533,260.362 207.000 C 260.375 206.548,259.112 202.814,258.738 202.200 C 258.604 201.980,258.369 201.217,258.216 200.505 C 258.003 199.511,257.191 198.207,257.202 198.876 M185.822 200.443 C 184.877 203.119,184.371 204.905,184.517 205.051 C 184.687 205.220,184.987 204.494,185.933 201.626 C 186.356 200.343,186.252 199.226,185.822 200.443 M140.044 201.631 C 139.763 202.384,139.279 203.591,138.967 204.314 C 138.655 205.036,138.411 205.936,138.423 206.314 C 138.436 206.691,138.977 205.652,139.625 204.003 C 140.272 202.355,140.746 200.839,140.678 200.635 C 140.610 200.430,140.325 200.878,140.044 201.631 M212.416 200.854 C 212.407 201.214,212.669 202.024,212.998 202.654 C 213.766 204.128,213.780 203.306,213.016 201.546 C 212.694 200.806,212.424 200.494,212.416 200.854 M213.616 204.876 C 213.607 205.248,213.780 205.664,214.000 205.800 C 214.220 205.936,214.421 206.442,214.446 206.924 C 214.480 207.564,214.541 207.618,214.671 207.123 C 214.769 206.751,214.576 205.941,214.241 205.323 C 213.834 204.572,213.627 204.424,213.616 204.876 M183.681 207.245 C 183.397 208.155,183.245 208.978,183.343 209.076 C 183.588 209.321,184.496 206.488,184.331 205.992 C 184.257 205.772,183.965 206.336,183.681 207.245 M137.611 208.171 C 137.385 208.765,137.214 209.555,137.232 209.926 C 137.257 210.467,137.302 210.481,137.461 210.000 C 137.570 209.670,137.856 208.995,138.097 208.501 C 138.337 208.006,138.419 207.486,138.278 207.345 C 138.138 207.204,137.837 207.576,137.611 208.171 M260.416 208.076 C 260.407 208.448,260.580 208.864,260.800 209.000 C 261.020 209.136,261.221 209.642,261.246 210.124 C 261.280 210.764,261.341 210.818,261.471 210.323 C 261.569 209.951,261.376 209.141,261.041 208.523 C 260.634 207.772,260.427 207.624,260.416 208.076 M214.800 208.484 C 214.800 208.824,215.099 209.349,215.465 209.651 C 216.074 210.153,216.087 210.115,215.611 209.200 C 214.914 207.859,214.800 207.758,214.800 208.484 M182.869 210.200 C 183.016 211.029,215.600 211.730,215.600 210.904 C 215.600 210.737,208.447 210.651,199.705 210.714 C 184.843 210.820,183.774 210.781,183.269 210.114 C 182.759 209.441,182.736 209.446,182.869 210.200 M136.550 211.443 C 136.403 211.859,136.038 212.807,135.741 213.549 C 135.099 215.150,135.055 216.245,135.691 214.800 C 136.583 212.772,137.159 211.026,136.991 210.858 C 136.896 210.763,136.698 211.026,136.550 211.443 M261.811 211.800 C 261.963 212.240,262.264 213.230,262.481 214.000 C 262.697 214.770,263.038 215.571,263.237 215.780 C 263.437 215.989,263.600 216.538,263.600 217.000 C 263.600 217.462,263.763 218.011,263.963 218.220 C 264.162 218.429,264.508 219.230,264.731 220.000 C 265.215 221.676,265.948 223.760,266.631 225.400 C 266.905 226.060,267.443 227.590,267.826 228.800 C 268.209 230.010,268.655 231.180,268.818 231.400 C 268.981 231.620,269.217 232.160,269.343 232.600 C 269.494 233.129,269.522 233.062,269.426 232.400 C 269.346 231.850,269.057 230.770,268.784 230.000 C 267.637 226.771,267.098 225.361,266.759 224.705 C 266.562 224.323,266.399 223.783,266.398 223.505 C 266.396 223.227,266.143 222.517,265.835 221.927 C 265.527 221.337,265.155 220.304,265.007 219.632 C 264.859 218.959,264.572 218.306,264.369 218.181 C 264.166 218.055,263.999 217.558,263.998 217.076 C 263.996 216.594,263.726 215.684,263.398 215.054 C 263.069 214.424,262.800 213.604,262.800 213.231 C 262.800 212.858,262.515 212.204,262.167 211.776 C 261.544 211.011,261.539 211.011,261.811 211.800 M134.500 217.270 C 133.816 219.166,133.876 219.648,134.617 218.225 C 134.954 217.579,135.178 216.788,135.115 216.467 C 135.052 216.146,134.775 216.507,134.500 217.270 M133.600 219.639 C 133.600 219.734,133.228 220.799,132.774 222.006 C 132.320 223.213,131.520 225.460,130.996 227.000 C 129.067 232.671,127.681 236.452,127.444 236.690 C 127.310 236.824,127.200 237.191,127.200 237.506 C 127.200 237.821,126.948 238.646,126.640 239.340 C 126.332 240.033,125.987 240.960,125.874 241.400 C 125.760 241.840,125.274 243.190,124.794 244.400 C 124.313 245.610,123.844 247.050,123.752 247.600 C 123.660 248.150,123.966 247.610,124.434 246.400 C 124.901 245.190,125.440 243.840,125.630 243.400 C 125.821 242.960,126.355 241.430,126.817 240.000 C 127.279 238.570,127.802 237.040,127.979 236.600 C 128.156 236.160,128.516 235.268,128.780 234.617 C 129.043 233.966,129.622 232.346,130.066 231.017 C 131.444 226.895,133.263 221.842,133.709 220.901 C 133.943 220.406,134.014 219.881,133.867 219.734 C 133.720 219.587,133.600 219.544,133.600 219.639 M269.600 233.626 C 269.600 233.728,269.968 234.799,270.419 236.006 C 270.869 237.213,271.588 239.190,272.016 240.400 C 273.360 244.200,275.152 248.617,275.177 248.191 C 275.189 247.966,274.685 246.436,274.056 244.791 C 273.427 243.146,272.325 240.090,271.608 238.000 C 270.522 234.833,269.600 232.825,269.600 233.626 M122.811 249.771 C 122.585 250.365,122.408 251.155,122.418 251.526 C 122.427 251.897,122.689 251.487,123.000 250.615 C 123.630 248.846,123.457 248.071,122.811 249.771 M275.214 249.054 C 275.206 249.304,275.463 250.114,275.784 250.854 C 276.188 251.783,276.369 251.952,276.370 251.400 C 276.372 250.563,275.239 248.264,275.214 249.054 M171.397 251.300 C 171.018 252.235,169.556 256.060,168.150 259.800 C 164.650 269.107,164.375 269.717,162.930 271.378 C 162.366 272.025,160.981 272.874,159.852 273.264 C 158.724 273.655,158.183 273.980,158.651 273.987 C 161.395 274.029,166.000 269.488,166.000 266.739 C 166.000 266.509,166.246 265.754,166.546 265.060 C 166.847 264.367,167.592 262.450,168.203 260.800 C 170.715 254.011,172.137 250.584,172.556 250.306 C 173.069 249.966,224.580 249.898,225.837 250.236 C 226.457 250.402,226.918 251.205,227.614 253.330 C 228.517 256.087,229.929 259.187,229.468 257.400 C 229.058 255.811,227.071 250.589,226.691 250.100 C 226.387 249.709,220.406 249.600,199.194 249.600 L 172.087 249.600 171.397 251.300 M121.590 253.500 C 121.375 254.105,121.032 254.893,120.827 255.251 C 120.622 255.609,120.332 256.556,120.182 257.355 C 120.032 258.155,119.750 258.907,119.555 259.028 C 119.360 259.149,119.200 259.537,119.200 259.890 C 119.200 261.190,120.405 258.493,121.787 254.100 C 122.375 252.231,122.214 251.741,121.590 253.500 M276.611 253.000 C 276.763 253.440,277.066 254.430,277.285 255.200 C 277.504 255.970,277.824 256.780,277.995 257.000 C 278.167 257.220,278.432 257.983,278.585 258.695 C 278.737 259.408,279.028 260.094,279.231 260.219 C 279.698 260.508,279.708 259.802,279.249 258.895 C 278.341 257.100,277.600 255.107,277.600 254.463 C 277.600 254.072,277.315 253.404,276.967 252.976 C 276.344 252.211,276.339 252.211,276.611 253.000 M229.626 258.876 C 229.612 259.248,229.780 259.664,230.000 259.800 C 230.220 259.936,230.401 260.352,230.402 260.724 C 230.404 261.096,230.634 261.850,230.914 262.400 C 231.195 262.950,231.774 264.480,232.203 265.800 C 233.859 270.904,236.880 274.081,239.961 273.959 C 240.963 273.920,240.958 273.907,239.800 273.610 C 236.524 272.767,234.533 270.922,233.373 267.653 C 233.011 266.634,232.576 265.440,232.406 265.000 C 232.235 264.560,231.786 263.390,231.407 262.400 C 230.204 259.256,229.652 258.165,229.626 258.876 M279.632 261.274 C 279.587 262.228,280.371 264.162,280.678 263.855 C 280.819 263.714,280.737 263.194,280.497 262.699 C 280.256 262.205,279.970 261.530,279.861 261.200 C 279.702 260.719,279.657 260.733,279.632 261.274 M118.432 261.939 C 118.195 262.384,118.007 263.074,118.016 263.474 C 118.025 263.908,118.268 263.654,118.622 262.839 C 119.270 261.345,119.123 260.648,118.432 261.939 M117.299 265.191 C 116.475 266.510,116.660 270.915,117.589 272.095 C 118.359 273.074,121.094 274.639,121.437 274.297 C 121.531 274.202,120.874 273.794,119.977 273.389 C 117.552 272.296,116.040 267.320,117.645 265.715 C 117.890 265.470,118.024 265.072,117.944 264.831 C 117.863 264.590,117.573 264.751,117.299 265.191 M280.808 264.600 C 280.816 265.491,281.965 268.178,281.982 267.346 C 281.992 266.876,281.731 265.976,281.402 265.346 C 281.074 264.716,280.807 264.380,280.808 264.600 M281.175 271.064 C 280.756 272.131,280.166 272.726,279.000 273.255 C 277.806 273.798,277.625 273.985,278.287 273.991 C 279.381 274.002,282.000 271.460,282.000 270.387 C 282.000 269.261,281.826 269.403,281.175 271.064 M124.500 274.276 C 124.885 274.376,125.515 274.376,125.900 274.276 C 126.285 274.175,125.970 274.093,125.200 274.093 C 124.430 274.093,124.115 274.175,124.500 274.276 M133.674 274.299 C 137.345 274.365,143.465 274.365,147.274 274.299 C 151.083 274.234,148.080 274.180,140.600 274.180 C 133.120 274.179,130.003 274.233,133.674 274.299 M249.700 274.300 C 254.045 274.364,261.155 274.364,265.500 274.300 C 269.845 274.235,266.290 274.182,257.600 274.182 C 248.910 274.182,245.355 274.235,249.700 274.300 " stroke="none" fill="#7c7c7c" fill-rule="evenodd"></path><path id="path3" d="M174.810 115.591 C 172.355 116.563,169.930 119.349,168.819 122.474 C 168.326 123.863,167.778 125.360,167.603 125.800 C 166.669 128.145,165.935 130.469,166.082 130.615 C 166.174 130.707,166.568 129.841,166.958 128.691 C 167.349 127.541,167.811 126.240,167.986 125.800 C 168.161 125.360,168.615 124.190,168.995 123.200 C 172.080 115.164,171.014 115.447,199.200 115.194 L 222.200 114.987 199.400 114.935 C 178.450 114.887,176.455 114.940,174.810 115.591 M225.446 116.897 C 226.904 118.029,227.969 119.268,227.987 119.851 C 227.994 120.099,228.270 120.526,228.600 120.800 C 228.930 121.074,229.201 121.591,229.202 121.949 C 229.204 122.307,229.474 123.116,229.802 123.746 C 230.131 124.376,230.400 125.196,230.400 125.569 C 230.400 125.942,230.665 126.596,230.988 127.024 C 231.630 127.871,231.430 127.049,230.106 123.400 C 228.686 119.485,226.119 116.000,224.655 116.000 C 224.455 116.000,224.811 116.403,225.446 116.897 M231.632 128.600 C 231.630 129.040,231.886 129.850,232.200 130.400 C 232.930 131.678,232.934 131.404,232.212 129.400 C 231.895 128.520,231.634 128.160,231.632 128.600 M165.600 131.239 C 165.600 131.334,165.243 132.387,164.807 133.580 C 164.371 134.772,164.097 135.831,164.198 135.931 C 164.299 136.032,164.469 135.864,164.576 135.557 C 165.557 132.758,165.936 131.403,165.782 131.249 C 165.682 131.149,165.600 131.144,165.600 131.239 M232.828 132.200 C 232.827 132.640,233.090 133.349,233.413 133.776 C 234.156 134.759,234.157 134.453,233.416 132.746 C 233.011 131.814,232.830 131.646,232.828 132.200 M234.026 135.676 C 234.012 136.048,234.180 136.464,234.400 136.600 C 234.620 136.736,234.801 137.152,234.802 137.524 C 234.804 137.896,235.074 138.716,235.402 139.346 C 235.731 139.976,236.014 140.786,236.032 141.146 C 236.054 141.612,236.124 141.646,236.277 141.265 C 236.472 140.776,236.026 139.441,234.585 136.200 C 234.267 135.485,234.041 135.273,234.026 135.676 M163.301 137.656 C 163.033 138.366,162.896 139.029,162.996 139.129 C 163.234 139.368,164.061 137.184,163.907 136.722 C 163.842 136.526,163.569 136.946,163.301 137.656 M162.446 140.220 C 162.421 140.671,162.187 141.253,161.927 141.513 C 161.666 141.774,161.562 142.095,161.694 142.228 C 162.070 142.603,162.872 140.839,162.672 140.079 C 162.531 139.546,162.483 139.576,162.446 140.220 M236.400 142.339 C 236.400 142.598,236.565 143.123,236.767 143.505 C 236.968 143.887,237.353 144.791,237.620 145.513 C 237.888 146.235,238.170 146.763,238.246 146.687 C 238.404 146.529,236.947 142.413,236.616 142.083 C 236.497 141.964,236.400 142.079,236.400 142.339 M161.129 143.800 C 160.998 144.240,160.758 144.960,160.596 145.400 C 160.344 146.086,160.398 146.070,160.979 145.293 C 161.351 144.793,161.591 144.073,161.512 143.693 C 161.387 143.092,161.336 143.106,161.129 143.800 M159.685 147.773 C 158.986 149.308,159.092 150.017,159.813 148.633 C 160.148 147.991,160.365 147.296,160.296 147.088 C 160.227 146.880,159.952 147.188,159.685 147.773 M238.416 147.824 C 238.407 148.276,238.664 148.996,238.987 149.424 C 239.742 150.421,239.752 150.042,239.016 148.346 C 238.585 147.353,238.427 147.216,238.416 147.824 M158.485 150.973 C 158.218 151.559,158.000 152.379,158.000 152.795 C 158.000 153.212,157.820 153.664,157.600 153.800 C 157.380 153.936,157.206 154.262,157.213 154.524 C 157.235 155.364,158.400 153.480,158.400 152.604 C 158.400 152.140,158.600 151.560,158.845 151.315 C 159.090 151.070,159.218 150.654,159.130 150.390 C 159.042 150.125,158.752 150.388,158.485 150.973 M239.661 151.000 C 239.643 151.440,239.886 152.250,240.200 152.800 C 240.563 153.435,240.777 153.573,240.786 153.180 C 240.794 152.839,240.637 152.389,240.439 152.180 C 240.240 151.971,239.991 151.440,239.885 151.000 L 239.693 150.200 239.661 151.000 M240.816 154.454 C 240.807 154.814,241.069 155.624,241.398 156.254 C 242.166 157.728,242.180 156.906,241.416 155.146 C 241.094 154.406,240.824 154.094,240.816 154.454 M156.846 155.820 C 156.821 156.271,156.600 156.840,156.355 157.085 C 156.110 157.330,155.999 157.771,156.107 158.065 C 156.373 158.784,157.285 156.460,157.063 155.632 C 156.945 155.194,156.879 155.252,156.846 155.820 M242.016 158.076 C 242.007 158.448,242.180 158.864,242.400 159.000 C 242.620 159.136,242.821 159.642,242.846 160.124 C 242.880 160.764,242.941 160.818,243.071 160.323 C 243.169 159.951,242.976 159.141,242.641 158.523 C 242.234 157.772,242.027 157.624,242.016 158.076 M155.254 160.202 C 154.964 161.004,154.809 161.742,154.909 161.843 C 155.181 162.114,156.105 159.715,155.931 159.192 C 155.848 158.945,155.544 159.400,155.254 160.202 M198.469 161.404 C 197.991 162.011,197.608 162.889,197.617 163.354 C 197.631 164.055,197.750 163.981,198.317 162.920 C 199.140 161.378,199.710 161.233,200.060 162.476 C 200.296 163.315,200.324 163.325,200.360 162.576 C 200.446 160.796,199.438 160.171,198.469 161.404 M154.100 163.485 C 153.383 165.026,153.486 166.028,154.217 164.625 C 154.554 163.979,154.778 163.217,154.715 162.931 C 154.652 162.644,154.375 162.894,154.100 163.485 M244.000 163.320 C 244.000 163.679,244.255 164.564,244.567 165.286 C 244.879 166.009,245.353 167.191,245.621 167.913 C 246.583 170.508,246.352 168.894,245.344 165.979 C 244.233 162.767,244.000 162.306,244.000 163.320 M200.565 164.234 C 200.731 164.655,201.410 166.677,202.074 168.726 C 202.738 170.776,203.363 172.370,203.463 172.270 C 203.656 172.077,202.564 168.224,202.022 167.187 C 201.846 166.850,201.575 165.997,201.420 165.291 C 201.265 164.586,200.942 163.888,200.701 163.739 C 200.409 163.558,200.364 163.722,200.565 164.234 M196.900 165.493 C 196.625 166.079,196.407 166.839,196.416 167.180 C 196.424 167.521,196.699 167.184,197.026 166.430 C 197.734 164.799,197.621 163.956,196.900 165.493 M152.885 166.973 C 152.186 168.508,152.292 169.217,153.013 167.833 C 153.348 167.191,153.565 166.496,153.496 166.288 C 153.427 166.080,153.152 166.388,152.885 166.973 M195.665 169.017 C 195.409 169.578,195.209 170.434,195.219 170.919 C 195.231 171.481,195.459 171.171,195.847 170.061 C 196.521 168.137,196.395 167.414,195.665 169.017 M152.032 169.206 C 152.014 169.319,151.643 170.387,151.207 171.580 C 150.771 172.772,150.496 173.830,150.596 173.930 C 150.807 174.140,151.600 172.184,151.600 171.454 C 151.600 171.182,151.800 170.760,152.045 170.515 C 152.290 170.270,152.394 169.829,152.277 169.535 C 152.159 169.241,152.049 169.093,152.032 169.206 M246.416 170.054 C 246.407 170.414,246.669 171.224,246.998 171.854 C 247.766 173.328,247.780 172.506,247.016 170.746 C 246.694 170.006,246.424 169.694,246.416 170.054 M194.465 173.017 C 194.209 173.578,194.008 174.344,194.018 174.719 C 194.027 175.093,194.289 174.687,194.600 173.815 C 195.245 172.004,195.159 171.494,194.465 173.017 M203.602 173.054 C 203.598 173.795,204.767 176.259,204.784 175.546 C 204.793 175.186,204.531 174.376,204.202 173.746 C 203.874 173.116,203.604 172.804,203.602 173.054 M247.612 173.676 C 247.605 174.048,247.760 174.451,247.955 174.572 C 248.150 174.693,248.427 175.417,248.570 176.182 C 248.714 176.946,248.986 177.668,249.176 177.785 C 249.567 178.027,248.653 174.765,248.030 173.697 C 247.657 173.056,247.623 173.054,247.612 173.676 M149.920 175.200 C 149.788 175.750,149.293 177.190,148.820 178.400 C 148.348 179.610,147.535 181.860,147.015 183.400 C 146.495 184.940,145.497 187.730,144.798 189.600 C 144.098 191.470,143.459 193.450,143.378 194.000 C 143.280 194.653,143.308 194.722,143.457 194.200 C 143.583 193.760,143.828 193.220,144.001 193.000 C 144.175 192.780,144.497 191.970,144.718 191.200 C 144.939 190.430,145.694 188.270,146.397 186.400 C 147.099 184.530,147.773 182.550,147.895 182.000 C 148.017 181.450,148.360 180.645,148.658 180.211 C 148.956 179.777,149.200 179.093,149.200 178.691 C 149.200 178.289,149.481 177.417,149.824 176.753 C 150.167 176.089,150.384 175.243,150.304 174.873 C 150.202 174.393,150.091 174.487,149.920 175.200 M193.211 176.571 C 192.985 177.165,192.800 177.990,192.800 178.402 C 192.800 178.815,192.620 179.264,192.400 179.400 C 192.180 179.536,192.012 179.952,192.026 180.324 C 192.053 181.048,192.787 179.547,193.540 177.226 C 194.074 175.581,193.797 175.029,193.211 176.571 M204.800 176.878 C 204.800 177.004,205.063 177.714,205.384 178.454 C 205.789 179.386,205.970 179.554,205.972 179.000 C 205.973 178.560,205.710 177.851,205.387 177.424 C 205.064 176.996,204.800 176.751,204.800 176.878 M249.851 179.600 C 249.984 180.370,250.226 181.180,250.388 181.400 C 250.551 181.620,250.787 182.160,250.913 182.600 C 251.039 183.040,251.796 185.200,252.595 187.400 C 253.394 189.600,254.145 191.760,254.264 192.200 C 254.382 192.640,254.732 193.567,255.040 194.260 C 255.348 194.954,255.600 195.698,255.600 195.915 C 255.600 196.131,255.887 196.824,256.237 197.454 C 256.613 198.131,256.792 198.273,256.675 197.800 C 256.421 196.781,254.487 191.256,254.015 190.200 C 253.818 189.760,253.292 188.320,252.847 187.000 C 251.984 184.445,250.294 179.796,249.867 178.800 C 249.725 178.470,249.718 178.830,249.851 179.600 M206.039 180.200 C 206.024 180.420,206.271 181.320,206.588 182.200 C 206.905 183.080,207.165 183.440,207.164 183.000 C 207.164 182.172,206.085 179.490,206.039 180.200 M191.291 182.500 C 191.021 183.246,190.813 184.114,190.828 184.428 C 190.844 184.743,191.117 184.289,191.435 183.420 C 191.753 182.551,191.961 181.683,191.897 181.492 C 191.833 181.300,191.560 181.754,191.291 182.500 M208.013 186.443 C 208.420 187.787,208.880 189.002,209.035 189.143 C 209.191 189.284,209.186 188.950,209.025 188.400 C 208.864 187.850,208.537 186.635,208.299 185.700 C 208.060 184.765,207.732 184.000,207.569 184.000 C 207.407 184.000,207.606 185.099,208.013 186.443 M190.037 186.311 C 189.753 186.998,189.614 187.793,189.728 188.080 C 189.846 188.374,189.951 188.244,189.968 187.780 C 189.986 187.329,190.200 186.760,190.445 186.515 C 190.690 186.270,190.814 185.843,190.722 185.566 C 190.630 185.289,190.321 185.624,190.037 186.311 M188.811 189.771 C 188.585 190.365,188.408 191.155,188.418 191.526 C 188.427 191.897,188.689 191.487,189.000 190.615 C 189.630 188.846,189.457 188.071,188.811 189.771 M209.202 190.054 C 209.201 190.414,209.469 191.224,209.798 191.854 C 210.153 192.535,210.396 192.734,210.398 192.346 C 210.399 191.986,210.131 191.176,209.802 190.546 C 209.447 189.865,209.204 189.666,209.202 190.054 M187.607 193.586 C 187.356 194.057,187.227 194.837,187.320 195.321 C 187.473 196.107,187.497 196.092,187.546 195.180 C 187.575 194.619,187.813 193.947,188.073 193.687 C 188.334 193.426,188.438 193.105,188.306 192.972 C 188.173 192.840,187.859 193.116,187.607 193.586 M210.402 193.454 C 210.398 194.195,211.567 196.659,211.584 195.946 C 211.593 195.586,211.331 194.776,211.002 194.146 C 210.674 193.516,210.404 193.204,210.402 193.454 M141.920 197.600 C 141.788 198.150,141.302 199.587,140.840 200.794 C 139.856 203.366,139.817 203.675,140.613 202.624 C 140.936 202.196,141.200 201.513,141.200 201.104 C 141.200 200.695,141.481 199.817,141.824 199.153 C 142.167 198.489,142.384 197.643,142.304 197.273 C 142.202 196.793,142.091 196.887,141.920 197.600 M211.600 197.640 C 211.600 197.970,211.763 198.411,211.961 198.620 C 212.160 198.829,212.407 199.270,212.510 199.600 C 212.612 199.930,212.627 199.666,212.541 199.013 C 212.372 197.729,211.600 196.602,211.600 197.640 M256.816 199.276 C 256.807 199.648,256.980 200.064,257.200 200.200 C 257.420 200.336,257.621 200.842,257.646 201.324 C 257.680 201.964,257.741 202.018,257.871 201.523 C 257.969 201.151,257.776 200.341,257.441 199.723 C 257.034 198.972,256.827 198.824,256.816 199.276 M212.806 200.820 C 212.809 200.919,213.088 201.720,213.424 202.600 L 214.037 204.200 213.811 202.813 C 213.634 201.725,212.780 200.031,212.806 200.820 M184.500 203.093 C 184.225 203.679,184.007 204.439,184.016 204.780 C 184.024 205.121,184.299 204.784,184.626 204.030 C 185.334 202.399,185.221 201.556,184.500 203.093 M258.026 202.705 C 258.012 202.983,258.158 203.523,258.351 203.905 C 259.259 205.700,260.000 207.693,260.000 208.337 C 260.000 208.728,260.285 209.396,260.633 209.824 C 261.256 210.589,261.261 210.589,260.991 209.800 C 260.840 209.360,260.558 208.460,260.364 207.800 C 260.171 207.140,259.854 206.240,259.661 205.800 C 258.383 202.891,258.048 202.258,258.026 202.705 M139.254 205.002 C 138.964 205.804,138.809 206.542,138.909 206.643 C 139.181 206.914,140.105 204.515,139.931 203.992 C 139.848 203.745,139.544 204.200,139.254 205.002 M214.185 205.000 C 214.351 205.440,214.664 206.430,214.881 207.200 C 215.097 207.970,215.464 208.780,215.696 209.000 C 215.988 209.277,216.025 209.155,215.815 208.600 C 215.649 208.160,215.336 207.170,215.119 206.400 C 214.903 205.630,214.536 204.820,214.304 204.600 C 214.012 204.323,213.975 204.445,214.185 205.000 M183.198 207.205 C 182.917 207.882,182.668 209.103,182.644 209.918 L 182.600 211.400 199.167 211.400 C 213.553 211.400,215.755 211.321,215.897 210.800 C 216.020 210.351,215.971 210.327,215.704 210.705 C 215.425 211.100,211.832 211.186,199.174 211.105 L 183.000 211.000 183.066 209.638 C 183.102 208.888,183.357 207.854,183.633 207.338 C 183.909 206.823,184.038 206.305,183.921 206.188 C 183.804 206.070,183.478 206.528,183.198 207.205 M138.100 208.470 C 137.416 210.366,137.476 210.848,138.217 209.425 C 138.554 208.779,138.778 207.988,138.715 207.667 C 138.652 207.346,138.375 207.707,138.100 208.470 M136.844 212.031 C 136.563 212.784,136.079 213.991,135.767 214.714 C 135.455 215.436,135.200 216.370,135.200 216.790 C 135.200 217.210,135.020 217.664,134.800 217.800 C 134.580 217.936,134.406 218.352,134.414 218.724 C 134.433 219.604,135.565 217.692,135.586 216.746 C 135.594 216.386,135.869 215.576,136.198 214.946 C 136.526 214.316,136.796 213.521,136.798 213.180 C 136.799 212.839,137.000 212.360,137.245 212.115 C 137.490 211.870,137.614 211.443,137.522 211.166 C 137.430 210.889,137.125 211.278,136.844 212.031 M261.246 211.254 C 261.221 211.614,261.469 212.424,261.798 213.054 C 262.126 213.684,262.396 213.921,262.398 213.580 C 262.399 213.239,262.237 212.789,262.039 212.580 C 261.840 212.371,261.591 211.840,261.485 211.400 C 261.350 210.837,261.279 210.793,261.246 211.254 M262.402 214.854 C 262.401 215.214,262.669 216.024,262.998 216.654 C 263.353 217.335,263.596 217.534,263.598 217.146 C 263.599 216.786,263.331 215.976,263.002 215.346 C 262.647 214.665,262.404 214.466,262.402 214.854 M263.626 218.476 C 263.612 218.848,263.780 219.264,264.000 219.400 C 264.220 219.536,264.401 219.952,264.402 220.324 C 264.404 220.696,264.674 221.516,265.002 222.146 C 265.331 222.776,265.600 223.535,265.600 223.832 C 265.600 224.130,265.855 224.964,266.167 225.686 C 266.479 226.409,266.963 227.616,267.244 228.369 C 267.525 229.122,267.817 229.549,267.894 229.318 C 267.971 229.088,267.576 227.864,267.017 226.600 C 266.458 225.335,266.000 224.059,266.000 223.764 C 266.000 222.768,263.660 217.558,263.626 218.476 M133.644 220.844 C 133.352 221.505,133.198 222.131,133.302 222.236 C 133.407 222.340,133.721 221.874,134.000 221.200 C 134.662 219.601,134.338 219.277,133.644 220.844 M132.500 224.070 C 131.816 225.966,131.876 226.448,132.617 225.025 C 132.954 224.379,133.178 223.588,133.115 223.267 C 133.052 222.946,132.775 223.307,132.500 224.070 M131.237 227.511 C 130.953 228.198,130.814 228.993,130.928 229.280 C 131.046 229.574,131.151 229.444,131.168 228.980 C 131.186 228.529,131.400 227.960,131.645 227.715 C 131.890 227.470,132.014 227.043,131.922 226.766 C 131.830 226.489,131.521 226.824,131.237 227.511 M130.432 230.006 C 130.414 230.119,130.043 231.187,129.607 232.380 C 129.171 233.572,128.896 234.630,128.996 234.730 C 129.207 234.940,130.000 232.984,130.000 232.254 C 130.000 231.982,130.200 231.560,130.445 231.315 C 130.690 231.070,130.794 230.629,130.677 230.335 C 130.559 230.041,130.449 229.893,130.432 230.006 M268.016 230.454 C 268.007 230.814,268.269 231.624,268.598 232.254 C 269.366 233.728,269.380 232.906,268.616 231.146 C 268.294 230.406,268.024 230.094,268.016 230.454 M269.200 234.110 C 269.200 234.463,269.380 234.864,269.600 235.000 C 269.820 235.136,270.000 235.524,270.000 235.863 C 270.000 236.202,270.256 237.046,270.569 237.740 C 270.882 238.433,271.540 240.260,272.032 241.800 C 272.524 243.340,273.105 244.780,273.322 245.000 C 273.583 245.264,273.617 245.128,273.421 244.600 C 273.258 244.160,272.700 242.540,272.182 241.000 C 270.105 234.832,269.200 232.740,269.200 234.110 M127.484 238.150 C 126.402 241.058,126.105 242.345,126.781 241.190 C 127.331 240.252,128.901 235.567,128.724 235.391 C 128.638 235.305,128.080 236.546,127.484 238.150 M125.929 242.600 C 125.798 243.040,125.558 243.760,125.396 244.200 C 125.144 244.886,125.198 244.870,125.779 244.093 C 126.151 243.593,126.391 242.873,126.312 242.493 C 126.187 241.892,126.136 241.906,125.929 242.600 M124.485 246.573 C 123.786 248.108,123.892 248.817,124.613 247.433 C 124.948 246.791,125.165 246.096,125.096 245.888 C 125.027 245.680,124.752 245.988,124.485 246.573 M273.616 246.220 C 273.607 246.671,273.794 247.234,274.031 247.471 C 274.268 247.708,274.614 248.509,274.800 249.251 C 274.985 249.993,275.709 252.130,276.409 254.000 C 277.108 255.870,277.861 258.030,278.082 258.800 C 278.303 259.570,278.625 260.380,278.799 260.600 C 278.972 260.820,279.217 261.360,279.343 261.800 C 279.486 262.301,279.512 262.227,279.413 261.600 C 279.284 260.789,278.102 257.316,276.690 253.600 C 276.565 253.270,276.101 251.920,275.660 250.600 C 274.453 246.989,273.634 245.234,273.616 246.220 M123.237 249.911 C 122.953 250.598,122.814 251.393,122.928 251.680 C 123.046 251.974,123.151 251.844,123.168 251.380 C 123.186 250.929,123.400 250.360,123.645 250.115 C 123.890 249.870,124.014 249.443,123.922 249.166 C 123.830 248.889,123.521 249.224,123.237 249.911 M171.857 249.537 C 171.191 250.273,169.195 254.972,169.206 255.776 C 169.217 256.525,169.961 255.060,170.617 253.000 C 171.888 249.010,168.858 249.407,198.484 249.352 C 226.074 249.302,226.325 249.315,227.094 250.828 C 227.574 251.773,227.588 251.776,227.594 250.923 C 227.609 248.767,228.049 248.800,199.173 248.800 C 173.790 248.800,172.492 248.835,171.857 249.537 M227.613 252.054 C 227.606 252.194,227.863 252.914,228.184 253.654 C 228.615 254.647,228.773 254.784,228.784 254.176 C 228.798 253.462,227.647 251.377,227.613 252.054 M121.520 254.800 C 121.388 255.350,120.902 256.787,120.440 257.994 C 119.978 259.201,119.606 260.281,119.613 260.394 C 119.645 260.921,120.800 258.967,120.800 258.385 C 120.800 258.021,121.083 257.155,121.429 256.461 C 121.775 255.768,121.992 254.885,121.909 254.500 C 121.797 253.972,121.701 254.046,121.520 254.800 M228.800 255.354 C 228.800 255.439,229.080 256.114,229.422 256.854 C 229.874 257.833,229.985 257.927,229.827 257.200 C 229.708 256.650,229.608 255.975,229.605 255.700 C 229.602 255.425,229.420 255.200,229.200 255.200 C 228.980 255.200,228.800 255.269,228.800 255.354 M168.444 257.644 C 168.152 258.305,167.998 258.931,168.102 259.036 C 168.207 259.140,168.521 258.674,168.800 258.000 C 169.462 256.401,169.138 256.077,168.444 257.644 M230.000 258.508 C 230.000 259.221,231.970 263.210,231.983 262.524 C 231.992 262.042,231.834 261.545,231.631 261.419 C 231.428 261.294,231.144 260.655,231.000 260.000 C 230.791 259.049,230.000 257.869,230.000 258.508 M167.265 260.617 C 167.009 261.178,166.808 261.944,166.818 262.319 C 166.827 262.693,167.089 262.287,167.400 261.415 C 168.045 259.604,167.959 259.094,167.265 260.617 M119.246 261.476 C 119.221 261.958,119.020 262.464,118.800 262.600 C 118.580 262.736,118.407 263.152,118.416 263.524 C 118.427 263.976,118.634 263.828,119.041 263.077 C 119.376 262.459,119.569 261.649,119.471 261.277 C 119.341 260.782,119.280 260.836,119.246 261.476 M279.600 263.087 C 279.600 263.343,279.780 263.664,280.000 263.800 C 280.220 263.936,280.400 264.376,280.400 264.778 C 280.400 265.179,280.680 266.114,281.022 266.854 C 281.428 267.733,281.556 267.853,281.390 267.200 C 281.250 266.650,281.034 265.750,280.910 265.200 C 280.655 264.072,279.600 262.371,279.600 263.087 M166.007 263.987 C 165.755 264.457,165.630 265.147,165.728 265.521 C 165.869 266.054,165.917 266.024,165.954 265.380 C 165.979 264.929,166.213 264.347,166.473 264.087 C 166.734 263.826,166.838 263.505,166.706 263.372 C 166.573 263.240,166.259 263.516,166.007 263.987 M232.000 264.100 C 232.000 264.459,232.180 264.864,232.400 265.000 C 232.620 265.136,232.800 265.516,232.800 265.846 C 232.800 268.902,238.704 275.029,240.204 273.529 C 240.314 273.419,239.638 273.078,238.702 272.772 C 236.173 271.943,233.236 268.150,233.187 265.649 C 233.169 264.724,232.000 263.198,232.000 264.100 M117.633 265.900 C 117.341 266.784,117.200 267.753,117.320 268.054 C 117.443 268.363,117.551 268.198,117.568 267.674 C 117.586 267.164,117.792 266.389,118.026 265.952 C 118.260 265.514,118.387 264.961,118.308 264.724 C 118.229 264.486,117.925 265.015,117.633 265.900 M164.432 268.317 C 164.414 268.601,164.223 269.051,164.006 269.317 C 163.789 269.583,163.170 270.353,162.630 271.030 C 162.057 271.747,160.955 272.467,159.985 272.757 C 159.070 273.031,158.419 273.352,158.537 273.470 C 159.567 274.501,165.234 269.697,164.659 268.281 C 164.516 267.930,164.455 267.940,164.432 268.317 M117.200 270.143 C 117.200 270.995,118.476 272.706,119.437 273.144 C 120.416 273.590,120.479 273.577,120.018 273.022 C 119.734 272.680,119.254 272.400,118.951 272.400 C 118.648 272.400,118.394 272.175,118.387 271.900 C 118.374 271.372,117.200 269.635,117.200 270.143 M280.729 271.063 C 280.444 271.819,279.819 272.444,279.063 272.729 C 278.397 272.981,277.953 273.286,278.075 273.408 C 278.538 273.871,280.432 272.618,281.005 271.469 C 281.334 270.810,281.510 270.176,281.395 270.061 C 281.280 269.947,280.981 270.397,280.729 271.063 M129.927 273.900 C 135.058 273.963,143.338 273.963,148.327 273.900 C 153.317 273.836,149.120 273.784,139.000 273.784 C 128.880 273.784,124.797 273.836,129.927 273.900 M250.527 273.900 C 255.547 273.963,263.647 273.963,268.527 273.900 C 273.407 273.836,269.300 273.784,259.400 273.784 C 249.500 273.784,245.507 273.836,250.527 273.900 " stroke="none" fill="#6c6c6c" fill-rule="evenodd"></path><path id="path4" d="M184.729 249.500 C 191.179 249.562,201.619 249.562,207.929 249.500 C 214.238 249.438,208.960 249.387,196.200 249.387 C 183.440 249.387,178.278 249.438,184.729 249.500 " stroke="none" fill="#747474" fill-rule="evenodd"></path></g></svg>