<svg id="svg" xmlns="http://www.w3.org/2000/svg" xmlns:xlink="http://www.w3.org/1999/xlink" width="400" height="400" viewBox="0, 0, 400,400"><g id="svgg"><path id="path0" d="M142.578 1.222 C 24.659 17.242,-37.993 148.772,24.078 250.000 C 71.190 326.831,174.353 351.343,250.000 303.679 L 254.297 300.972 302.344 348.834 C 355.274 401.562,352.938 399.593,362.600 399.603 C 371.131 399.611,373.697 397.999,387.396 384.027 C 398.279 372.928,399.966 370.039,399.966 362.500 C 399.966 353.163,401.510 354.966,348.710 302.654 L 300.527 254.917 304.139 249.122 C 375.899 133.988,277.433 -17.098,142.578 1.222 M177.734 65.945 C 259.774 78.464,291.683 178.323,231.935 235.567 C 179.621 285.688,93.073 263.987,69.680 194.885 C 46.531 126.503,106.402 55.060,177.734 65.945 " stroke="none" fill="#000000" fill-rule="evenodd"></path></g></svg>