<svg id="svg" version="1.1" xmlns="http://www.w3.org/2000/svg" xmlns:xlink="http://www.w3.org/1999/xlink" width="400" height="400" viewBox="0, 0, 400,400"><g id="svgg"><path id="path0" d="M99.299 104.730 C 98.900 104.984,98.819 125.667,98.899 206.824 L 99.000 308.600 159.600 308.600 L 220.200 308.600 220.302 267.839 C 220.376 238.254,220.528 226.928,220.856 226.533 C 221.232 226.079,228.116 225.992,261.917 226.011 C 284.251 226.024,302.678 225.882,302.864 225.696 C 303.050 225.510,303.157 198.187,303.101 164.979 L 303.000 104.600 201.400 104.506 C 145.520 104.454,99.575 104.555,99.299 104.730 " stroke="none" fill="#050504" fill-rule="evenodd"></path><path id="path1" d="M0.000 200.000 L 0.000 400.000 200.000 400.000 L 400.000 400.000 400.000 200.000 L 400.000 0.000 200.000 0.000 L 0.000 0.000 0.000 200.000 M303.994 103.793 C 304.285 104.143,304.412 123.189,304.404 165.241 L 304.393 226.182 262.316 268.265 L 220.240 310.347 159.379 310.386 C 104.126 310.421,98.469 310.366,97.989 309.786 C 97.390 309.066,97.158 104.309,97.755 103.712 C 98.054 103.413,301.475 102.849,302.887 103.143 C 303.265 103.222,303.763 103.515,303.994 103.793 " stroke="none" fill="#fbd304" fill-rule="evenodd"></path><path id="path2" d="M221.199 227.100 C 221.132 267.105,221.235 308.569,221.402 308.736 C 221.788 309.121,302.921 227.719,302.627 227.243 C 302.310 226.731,221.200 226.589,221.199 227.100 " stroke="none" fill="#fafaf8" fill-rule="evenodd"></path><path id="path3" d="M200.000 103.999 L 98.200 104.200 98.099 206.358 C 98.025 281.684,98.117 308.659,98.449 309.059 C 98.826 309.513,108.886 309.586,159.750 309.501 L 220.600 309.400 220.702 268.100 C 220.758 245.385,220.848 226.758,220.902 226.706 C 220.956 226.654,236.030 226.517,254.400 226.401 L 287.800 226.191 254.549 226.095 C 227.075 226.017,221.220 226.094,220.851 226.539 C 220.529 226.926,220.375 238.527,220.302 267.839 L 220.200 308.600 159.600 308.600 L 99.000 308.600 98.899 206.708 L 98.798 104.816 99.699 104.599 C 100.195 104.479,146.140 104.431,201.800 104.491 L 303.000 104.600 303.000 165.200 L 303.000 225.800 299.000 226.023 L 295.000 226.245 299.257 226.323 C 302.818 226.387,303.554 226.296,303.757 225.767 C 303.891 225.419,304.000 198.072,304.000 164.996 C 304.000 100.941,304.067 103.322,302.271 103.699 C 302.012 103.753,255.990 103.888,200.000 103.999 M290.311 226.293 C 291.251 226.378,292.691 226.377,293.511 226.291 C 294.330 226.205,293.560 226.136,291.800 226.137 C 290.040 226.139,289.370 226.209,290.311 226.293 " stroke="none" fill="#7c6204" fill-rule="evenodd"></path><path id="path4" d="M200.133 103.200 C 143.997 103.310,97.926 103.540,97.755 103.712 C 97.158 104.309,97.390 309.066,97.989 309.787 C 98.642 310.574,219.745 310.710,220.691 309.924 C 220.988 309.678,221.175 308.730,221.140 307.651 L 221.080 305.800 220.840 307.600 L 220.600 309.400 159.843 309.501 C 115.270 309.576,98.941 309.483,98.543 309.152 C 97.899 308.618,97.714 104.624,98.357 104.227 C 99.192 103.710,303.338 103.976,303.666 104.494 C 304.036 105.076,304.125 224.808,303.757 225.767 C 303.538 226.338,299.471 226.409,262.457 226.496 L 221.400 226.592 262.200 226.796 C 284.640 226.908,303.314 226.859,303.697 226.687 C 304.585 226.289,305.007 105.726,304.126 104.153 C 303.436 102.922,310.213 102.984,200.133 103.200 M220.992 266.400 C 220.992 287.630,221.041 296.315,221.100 285.700 C 221.159 275.085,221.159 257.715,221.100 247.100 C 221.041 236.485,220.992 245.170,220.992 266.400 " stroke="none" fill="#bc9c13" fill-rule="evenodd"></path></g></svg>