<svg id="svg" version="1.1" xmlns="http://www.w3.org/2000/svg" xmlns:xlink="http://www.w3.org/1999/xlink" width="400" height="400" viewBox="0, 0, 400,400"><g id="svgg"><path id="path0" d="M53.299 200.097 L 53.400 254.200 105.706 254.298 L 158.012 254.395 158.934 252.298 C 159.441 251.144,160.368 248.760,160.993 247.000 C 161.618 245.240,162.280 243.629,162.465 243.420 C 162.649 243.211,162.800 242.796,162.800 242.498 C 162.800 242.200,163.138 241.201,163.550 240.278 C 163.963 239.355,164.884 236.980,165.597 235.000 C 166.310 233.020,167.127 230.860,167.414 230.200 C 168.311 228.133,170.799 221.620,170.814 221.303 C 170.821 221.136,171.175 220.280,171.600 219.400 C 172.025 218.520,172.379 217.573,172.386 217.295 C 172.394 217.017,172.578 216.477,172.795 216.095 C 173.172 215.432,174.103 213.022,177.620 203.600 C 178.482 201.290,179.370 199.087,179.594 198.705 C 179.817 198.323,180.006 197.783,180.014 197.505 C 180.021 197.227,180.375 196.280,180.800 195.400 C 181.225 194.520,181.580 193.620,181.588 193.400 C 181.596 193.180,182.156 191.650,182.832 190.000 C 183.508 188.350,184.287 186.370,184.564 185.600 C 185.001 184.385,187.541 177.729,190.596 169.800 C 191.488 167.482,192.119 165.844,194.753 159.000 C 195.430 157.240,196.784 153.736,197.762 151.212 C 198.739 148.689,199.452 146.484,199.346 146.312 C 198.887 145.570,147.654 145.951,147.260 146.700 C 147.057 147.085,145.517 151.000,143.839 155.400 C 142.160 159.800,140.607 163.760,140.387 164.200 C 140.168 164.640,139.824 165.540,139.623 166.200 C 139.423 166.860,138.516 169.290,137.609 171.600 C 136.702 173.910,135.248 177.690,134.377 180.000 C 133.507 182.310,132.640 184.560,132.451 185.000 C 132.262 185.440,131.741 186.790,131.294 188.000 C 130.847 189.210,129.849 191.820,129.076 193.800 C 128.303 195.780,127.120 198.840,126.447 200.600 C 125.774 202.360,124.223 206.410,123.000 209.600 C 121.777 212.790,120.226 216.840,119.553 218.600 C 118.880 220.360,117.730 223.330,116.996 225.200 C 116.263 227.070,114.631 231.300,113.370 234.600 C 112.109 237.900,110.767 241.410,110.388 242.400 C 110.008 243.390,109.136 245.730,108.449 247.600 C 107.763 249.470,107.021 251.313,106.800 251.695 C 106.580 252.077,106.400 252.662,106.400 252.995 C 106.400 253.328,106.221 253.600,106.001 253.600 C 105.739 253.600,105.568 235.235,105.501 199.900 L 105.400 146.200 79.299 146.097 L 53.197 145.994 53.299 200.097 M200.686 146.247 C 200.550 146.383,200.803 147.418,201.248 148.547 C 201.694 149.676,202.769 152.490,203.638 154.800 C 204.507 157.110,205.484 159.567,205.809 160.260 C 206.134 160.954,206.400 161.713,206.400 161.947 C 206.400 162.181,206.667 162.964,206.993 163.686 C 207.551 164.923,210.554 172.657,213.249 179.800 C 213.913 181.560,214.620 183.360,214.821 183.800 C 215.021 184.240,215.750 186.130,216.441 188.000 C 217.132 189.870,218.010 192.210,218.390 193.200 C 218.771 194.190,220.576 198.870,222.400 203.600 C 226.978 215.469,226.955 215.410,228.306 219.000 C 228.968 220.760,230.446 224.630,231.590 227.600 C 232.735 230.570,234.121 234.170,234.671 235.600 C 235.221 237.030,236.270 239.730,237.003 241.600 C 237.735 243.470,238.984 246.710,239.779 248.800 C 240.573 250.890,241.393 253.003,241.601 253.496 L 241.979 254.392 294.390 254.392 L 346.800 254.392 346.800 200.193 L 346.800 145.994 320.700 146.097 L 294.600 146.200 294.400 200.000 C 294.176 260.362,294.488 255.228,291.517 247.400 C 290.849 245.640,289.951 243.300,289.522 242.200 C 289.093 241.100,288.560 239.660,288.338 239.000 C 288.116 238.340,287.770 237.440,287.570 237.000 C 287.369 236.560,286.493 234.310,285.623 232.000 C 284.752 229.690,283.298 225.910,282.391 223.600 C 281.484 221.290,280.577 218.860,280.377 218.200 C 280.176 217.540,279.832 216.640,279.613 216.200 C 279.125 215.223,272.621 198.198,272.202 196.800 C 272.037 196.250,271.763 195.620,271.593 195.400 C 271.422 195.180,271.095 194.370,270.866 193.600 C 270.637 192.830,269.742 190.400,268.878 188.200 C 268.014 186.000,266.554 182.220,265.633 179.800 C 264.713 177.380,263.699 174.833,263.380 174.140 C 263.061 173.446,262.800 172.627,262.800 172.320 C 262.800 172.012,262.645 171.589,262.455 171.380 C 262.264 171.171,261.555 169.470,260.877 167.600 C 259.613 164.110,259.176 162.955,256.634 156.400 C 255.824 154.310,254.691 151.340,254.117 149.800 C 253.543 148.260,252.899 146.775,252.687 146.500 C 252.280 145.971,201.210 145.723,200.686 146.247 " stroke="none" fill="#fbfbfb" fill-rule="evenodd"></path><path id="path1" d="M0.000 200.000 L 0.000 400.000 200.000 400.000 L 400.000 400.000 400.000 200.000 L 400.000 0.000 200.000 0.000 L 0.000 0.000 0.000 200.000 M106.099 198.700 C 106.154 227.905,106.346 251.440,106.525 251.000 C 106.704 250.560,107.184 249.300,107.592 248.200 C 108.954 244.529,111.225 238.610,111.582 237.800 C 111.776 237.360,112.432 235.650,113.040 234.000 C 113.647 232.350,114.292 230.829,114.472 230.620 C 114.653 230.411,114.806 229.961,114.814 229.620 C 114.821 229.279,115.175 228.280,115.600 227.400 C 116.025 226.520,116.379 225.581,116.386 225.314 C 116.394 225.046,116.666 224.236,116.992 223.514 C 117.317 222.791,118.234 220.490,119.030 218.400 C 119.825 216.310,120.992 213.250,121.623 211.600 C 122.254 209.950,123.422 206.890,124.218 204.800 C 125.014 202.710,126.296 199.380,127.065 197.400 C 129.222 191.851,129.463 191.225,130.762 187.800 C 134.417 178.169,136.475 172.857,137.005 171.686 C 137.332 170.964,137.600 170.181,137.600 169.947 C 137.600 169.713,137.864 168.954,138.187 168.260 C 138.510 167.567,139.600 164.840,140.610 162.200 C 143.877 153.657,144.883 151.037,145.683 149.000 C 146.114 147.900,146.563 146.685,146.680 146.300 C 146.882 145.638,149.768 145.600,199.949 145.600 L 253.005 145.600 253.488 146.700 C 253.754 147.305,254.704 149.780,255.598 152.200 C 256.493 154.620,257.392 156.960,257.597 157.400 C 258.277 158.858,260.800 165.480,260.814 165.843 C 260.821 166.039,261.175 166.920,261.600 167.800 C 262.025 168.680,262.379 169.627,262.386 169.905 C 262.394 170.183,262.578 170.723,262.795 171.105 C 263.013 171.487,263.834 173.510,264.621 175.600 C 268.040 184.681,269.275 187.878,269.819 189.060 C 270.139 189.754,270.400 190.498,270.400 190.715 C 270.400 190.931,270.669 191.624,270.998 192.254 C 271.326 192.884,271.596 193.681,271.598 194.024 C 271.599 194.366,271.864 194.996,272.187 195.424 C 272.510 195.851,272.786 196.470,272.801 196.800 C 272.815 197.130,273.175 198.120,273.600 199.000 C 274.025 199.880,274.379 200.761,274.386 200.957 C 274.404 201.423,277.096 208.393,277.607 209.295 C 277.823 209.677,278.001 210.217,278.002 210.495 C 278.004 210.773,278.236 211.450,278.519 212.000 C 278.802 212.550,279.555 214.440,280.193 216.200 C 280.831 217.960,281.587 219.850,281.874 220.400 C 282.161 220.950,282.396 221.619,282.398 221.886 C 282.399 222.154,282.666 222.964,282.992 223.686 C 283.317 224.409,284.217 226.665,284.992 228.700 C 287.712 235.848,289.233 239.808,289.561 240.600 C 289.744 241.040,290.263 242.390,290.716 243.600 C 291.168 244.810,292.047 247.134,292.669 248.765 L 293.800 251.730 294.000 198.765 L 294.200 145.800 320.901 145.697 L 347.603 145.594 347.501 200.097 L 347.400 254.600 294.400 254.600 L 241.400 254.600 240.147 251.400 C 238.621 247.502,238.350 246.798,237.304 244.000 C 236.852 242.790,235.815 240.090,235.000 238.000 C 234.185 235.910,233.153 233.210,232.706 232.000 C 232.259 230.790,231.744 229.440,231.561 229.000 C 231.379 228.560,230.578 226.490,229.782 224.400 C 228.985 222.310,227.704 218.980,226.935 217.000 C 225.087 212.245,224.633 211.053,223.579 208.200 C 223.092 206.880,222.538 205.440,222.349 205.000 C 221.446 202.901,216.683 190.449,216.350 189.320 C 216.143 188.616,215.711 187.536,215.389 186.920 C 215.068 186.304,214.804 185.496,214.802 185.124 C 214.801 184.752,214.627 184.340,214.415 184.209 C 214.203 184.078,213.854 183.393,213.639 182.686 C 213.021 180.648,212.015 177.910,211.382 176.540 C 211.062 175.846,210.800 175.109,210.800 174.901 C 210.800 174.693,210.555 174.000,210.255 173.361 C 209.955 172.723,209.035 170.400,208.210 168.200 C 206.630 163.982,206.533 163.738,205.226 160.649 C 204.772 159.576,204.394 158.496,204.386 158.249 C 204.379 158.002,204.025 157.080,203.600 156.200 C 203.175 155.320,202.821 154.373,202.814 154.095 C 202.806 153.817,202.621 153.277,202.402 152.895 C 202.183 152.513,201.631 151.165,201.174 149.900 C 200.165 147.108,199.909 147.061,199.004 149.500 C 198.616 150.545,198.078 151.940,197.809 152.600 C 197.540 153.260,196.947 154.790,196.493 156.000 C 193.967 162.720,192.721 165.940,192.192 167.114 C 191.866 167.836,191.600 168.619,191.600 168.853 C 191.600 169.087,191.340 169.846,191.022 170.540 C 190.170 172.396,187.600 179.038,187.600 179.383 C 187.600 179.546,187.348 180.246,187.041 180.940 C 185.928 183.449,183.600 189.427,183.586 189.809 C 183.579 190.024,183.225 190.920,182.800 191.800 C 182.375 192.680,182.021 193.679,182.014 194.020 C 182.006 194.361,181.848 194.811,181.662 195.020 C 181.476 195.229,180.910 196.570,180.404 198.000 C 179.897 199.430,179.254 201.140,178.974 201.800 C 177.845 204.465,175.629 210.346,175.378 211.344 C 175.232 211.929,174.951 212.506,174.756 212.627 C 174.560 212.748,174.400 213.124,174.400 213.463 C 174.400 213.802,174.141 214.646,173.825 215.340 C 172.857 217.462,172.002 219.664,170.929 222.800 C 170.364 224.450,169.774 225.980,169.616 226.200 C 169.459 226.420,168.915 227.770,168.407 229.200 C 167.899 230.630,167.258 232.340,166.983 233.000 C 166.708 233.660,166.078 235.280,165.582 236.600 C 165.086 237.920,164.451 239.540,164.171 240.200 C 163.891 240.860,163.538 241.897,163.387 242.504 C 163.235 243.111,162.951 243.706,162.756 243.827 C 162.560 243.948,162.399 244.352,162.398 244.724 C 162.396 245.096,162.164 245.850,161.881 246.400 C 161.598 246.950,160.852 248.840,160.223 250.600 C 159.595 252.360,158.905 254.026,158.690 254.301 C 158.380 254.700,147.434 254.782,105.450 254.701 L 52.600 254.600 52.499 200.100 L 52.397 145.600 79.197 145.600 L 105.997 145.600 106.099 198.700 " stroke="none" fill="#040404" fill-rule="evenodd"></path><path id="path2" d="M293.903 199.038 C 293.846 228.209,293.935 252.160,294.100 252.262 C 294.265 252.364,294.400 228.497,294.400 199.224 C 294.400 169.951,294.311 146.000,294.203 146.000 C 294.095 146.000,293.960 169.867,293.903 199.038 M52.741 254.501 C 52.907 254.667,76.793 254.757,105.821 254.701 L 158.600 254.600 105.520 254.400 C 76.326 254.290,52.576 254.336,52.741 254.501 M241.462 254.500 C 241.564 254.665,265.386 254.800,294.400 254.800 C 323.414 254.800,347.236 254.665,347.338 254.500 C 347.440 254.335,323.618 254.200,294.400 254.200 C 265.182 254.200,241.360 254.335,241.462 254.500 " stroke="none" fill="#3c3c3c" fill-rule="evenodd"></path><path id="path3" d="M347.200 199.920 L 347.400 254.200 347.501 200.221 C 347.557 170.533,347.467 146.107,347.301 145.941 C 347.136 145.776,347.090 170.066,347.200 199.920 M52.594 200.200 C 52.594 229.900,52.642 242.109,52.700 227.331 C 52.758 212.553,52.758 188.253,52.700 173.331 C 52.642 158.409,52.594 170.500,52.594 200.200 M105.695 199.500 C 105.643 228.815,105.735 252.800,105.900 252.800 C 106.169 252.800,106.166 200.242,105.894 161.200 C 105.837 152.950,105.747 170.185,105.695 199.500 " stroke="none" fill="#545454" fill-rule="evenodd"></path><path id="path4" d="M53.067 145.867 C 52.696 146.237,52.729 254.400,53.100 254.400 C 53.265 254.400,53.354 230.007,53.297 200.194 L 53.194 145.989 79.359 146.094 C 93.750 146.152,105.440 146.065,105.338 145.900 C 105.109 145.529,53.437 145.496,53.067 145.867 M147.277 146.083 C 147.015 146.345,146.800 146.738,146.800 146.956 C 146.800 147.175,147.025 147.047,147.300 146.672 C 148.148 145.518,199.452 145.842,199.283 147.000 C 199.187 147.662,199.239 147.696,199.583 147.200 C 199.954 146.667,200.046 146.667,200.417 147.200 C 200.761 147.696,200.813 147.662,200.717 147.000 C 200.570 145.997,251.484 145.505,252.755 146.497 C 253.327 146.943,253.338 146.921,252.854 146.303 C 252.157 145.415,148.162 145.198,147.277 146.083 M320.899 145.898 L 346.797 146.006 346.901 200.203 L 347.004 254.400 347.002 200.100 L 347.000 145.800 321.000 145.796 L 295.000 145.791 320.899 145.898 M145.644 149.644 C 145.398 150.351,145.266 151.000,145.352 151.085 C 145.438 151.171,145.709 150.662,145.956 149.956 C 146.202 149.249,146.334 148.600,146.248 148.515 C 146.162 148.429,145.891 148.938,145.644 149.644 M197.915 150.610 C 197.792 151.045,197.569 151.760,197.420 152.200 C 197.271 152.640,197.442 152.494,197.800 151.876 C 198.158 151.258,198.381 150.542,198.295 150.286 C 198.210 150.030,198.039 150.176,197.915 150.610 M144.444 152.844 C 144.198 153.551,144.066 154.200,144.152 154.285 C 144.238 154.371,144.509 153.862,144.756 153.156 C 145.002 152.449,145.134 151.800,145.048 151.715 C 144.962 151.629,144.691 152.138,144.444 152.844 M202.629 152.800 C 202.776 153.350,203.064 154.070,203.267 154.400 C 203.525 154.817,203.557 154.695,203.371 154.000 C 203.224 153.450,202.936 152.730,202.733 152.400 C 202.475 151.983,202.443 152.105,202.629 152.800 M196.444 154.444 C 196.198 155.151,196.066 155.800,196.152 155.885 C 196.238 155.971,196.509 155.462,196.756 154.756 C 197.002 154.049,197.134 153.400,197.048 153.315 C 196.962 153.229,196.691 153.738,196.444 154.444 M195.244 157.644 C 194.998 158.351,194.866 159.000,194.952 159.085 C 195.038 159.171,195.309 158.662,195.556 157.956 C 195.802 157.249,195.934 156.600,195.848 156.515 C 195.762 156.429,195.491 156.938,195.244 157.644 M141.644 160.044 C 141.398 160.751,141.266 161.400,141.352 161.485 C 141.438 161.571,141.709 161.062,141.956 160.356 C 142.202 159.649,142.334 159.000,142.248 158.915 C 142.162 158.829,141.891 159.338,141.644 160.044 M205.667 160.820 C 205.901 161.492,206.167 161.967,206.257 161.876 C 206.456 161.678,205.701 159.600,205.431 159.600 C 205.327 159.600,205.433 160.149,205.667 160.820 M192.444 164.844 C 192.198 165.551,192.066 166.200,192.152 166.285 C 192.238 166.371,192.509 165.862,192.756 165.156 C 193.002 164.449,193.134 163.800,193.048 163.715 C 192.962 163.629,192.691 164.138,192.444 164.844 M139.115 166.610 C 138.992 167.045,138.769 167.760,138.620 168.200 C 138.471 168.640,138.642 168.494,139.000 167.876 C 139.358 167.258,139.581 166.542,139.495 166.286 C 139.410 166.030,139.239 166.176,139.115 166.610 M261.818 170.100 C 261.968 170.595,262.255 171.176,262.456 171.391 C 262.657 171.606,262.619 171.201,262.372 170.491 C 261.865 169.038,261.397 168.708,261.818 170.100 M190.065 171.017 C 189.395 172.488,189.523 172.802,190.247 171.465 C 190.586 170.840,190.788 170.254,190.696 170.163 C 190.605 170.071,190.321 170.456,190.065 171.017 M209.228 170.200 C 209.228 170.420,209.486 171.050,209.800 171.600 C 210.114 172.150,210.372 172.420,210.372 172.200 C 210.372 171.980,210.114 171.350,209.800 170.800 C 209.486 170.250,209.228 169.980,209.228 170.200 M136.444 173.644 C 136.198 174.351,136.066 175.000,136.152 175.085 C 136.238 175.171,136.509 174.662,136.756 173.956 C 137.002 173.249,137.134 172.600,137.048 172.515 C 136.962 172.429,136.691 172.938,136.444 173.644 M263.018 173.300 C 263.168 173.795,263.455 174.376,263.656 174.591 C 263.857 174.806,263.819 174.401,263.572 173.691 C 263.065 172.238,262.597 171.908,263.018 173.300 M210.629 173.600 C 210.776 174.150,211.064 174.870,211.267 175.200 C 211.525 175.617,211.557 175.495,211.371 174.800 C 211.224 174.250,210.936 173.530,210.733 173.200 C 210.475 172.783,210.443 172.905,210.629 173.600 M187.244 178.444 C 186.998 179.151,186.866 179.800,186.952 179.885 C 187.038 179.971,187.309 179.462,187.556 178.756 C 187.802 178.049,187.934 177.400,187.848 177.315 C 187.762 177.229,187.491 177.738,187.244 178.444 M133.644 180.844 C 133.398 181.551,133.266 182.200,133.352 182.285 C 133.438 182.371,133.709 181.862,133.956 181.156 C 134.202 180.449,134.334 179.800,134.248 179.715 C 134.162 179.629,133.891 180.138,133.644 180.844 M215.040 185.337 C 215.398 186.386,215.761 187.173,215.847 187.087 C 216.055 186.878,215.185 184.304,214.741 183.815 C 214.548 183.604,214.683 184.289,215.040 185.337 M131.244 187.244 C 130.998 187.951,130.866 188.600,130.952 188.685 C 131.038 188.771,131.309 188.262,131.556 187.556 C 131.802 186.849,131.934 186.200,131.848 186.115 C 131.762 186.029,131.491 186.538,131.244 187.244 M183.244 188.844 C 182.998 189.551,182.866 190.200,182.952 190.285 C 183.038 190.371,183.309 189.862,183.556 189.156 C 183.802 188.449,183.934 187.800,183.848 187.715 C 183.762 187.629,183.491 188.138,183.244 188.844 M129.915 190.610 C 129.792 191.045,129.569 191.760,129.420 192.200 C 129.271 192.640,129.442 192.494,129.800 191.876 C 130.158 191.258,130.381 190.542,130.295 190.286 C 130.210 190.030,130.039 190.176,129.915 190.610 M182.065 191.817 C 181.809 192.378,181.607 193.054,181.616 193.319 C 181.624 193.583,181.897 193.188,182.222 192.439 C 182.905 190.865,182.761 190.290,182.065 191.817 M217.228 191.000 C 217.228 191.220,217.486 191.850,217.800 192.400 C 218.114 192.950,218.372 193.220,218.372 193.000 C 218.372 192.780,218.114 192.150,217.800 191.600 C 217.486 191.050,217.228 190.780,217.228 191.000 M271.018 194.100 C 271.168 194.595,271.455 195.176,271.656 195.391 C 271.857 195.606,271.819 195.201,271.572 194.491 C 271.065 193.038,270.597 192.708,271.018 194.100 M180.379 196.255 C 180.158 196.836,180.052 197.385,180.143 197.476 C 180.233 197.567,180.499 197.092,180.733 196.420 C 181.253 194.928,180.939 194.782,180.379 196.255 M179.179 199.455 C 178.958 200.036,178.852 200.585,178.943 200.676 C 179.033 200.767,179.299 200.292,179.533 199.620 C 180.053 198.128,179.739 197.982,179.179 199.455 M273.829 201.200 C 273.976 201.750,274.264 202.470,274.467 202.800 C 274.725 203.217,274.757 203.095,274.571 202.400 C 274.424 201.850,274.136 201.130,273.933 200.800 C 273.675 200.383,273.643 200.505,273.829 201.200 M178.044 202.444 C 177.798 203.151,177.666 203.800,177.752 203.885 C 177.838 203.971,178.109 203.462,178.356 202.756 C 178.602 202.049,178.734 201.400,178.648 201.315 C 178.562 201.229,178.291 201.738,178.044 202.444 M124.444 204.844 C 124.198 205.551,124.066 206.200,124.152 206.285 C 124.238 206.371,124.509 205.862,124.756 205.156 C 125.002 204.449,125.134 203.800,125.048 203.715 C 124.962 203.629,124.691 204.138,124.444 204.844 M275.029 204.400 C 275.176 204.950,275.464 205.670,275.667 206.000 C 275.925 206.417,275.957 206.295,275.771 205.600 C 275.624 205.050,275.336 204.330,275.133 204.000 C 274.875 203.583,274.843 203.705,275.029 204.400 M223.029 206.000 C 223.176 206.550,223.464 207.270,223.667 207.600 C 223.925 208.017,223.957 207.895,223.771 207.200 C 223.624 206.650,223.336 205.930,223.133 205.600 C 222.875 205.183,222.843 205.305,223.029 206.000 M123.244 208.044 C 122.998 208.751,122.866 209.400,122.952 209.485 C 123.038 209.571,123.309 209.062,123.556 208.356 C 123.802 207.649,123.934 207.000,123.848 206.915 C 123.762 206.829,123.491 207.338,123.244 208.044 M175.244 209.644 C 174.998 210.351,174.866 211.000,174.952 211.085 C 175.038 211.171,175.309 210.662,175.556 209.956 C 175.802 209.249,175.934 208.600,175.848 208.515 C 175.762 208.429,175.491 208.938,175.244 209.644 M277.829 211.600 C 277.976 212.150,278.264 212.870,278.467 213.200 C 278.725 213.617,278.757 213.495,278.571 212.800 C 278.424 212.250,278.136 211.530,277.933 211.200 C 277.675 210.783,277.643 210.905,277.829 211.600 M279.018 214.900 C 279.168 215.395,279.455 215.976,279.656 216.191 C 279.857 216.406,279.819 216.001,279.572 215.291 C 279.065 213.838,278.597 213.508,279.018 214.900 M171.179 220.255 C 170.958 220.836,170.852 221.385,170.943 221.476 C 171.033 221.567,171.299 221.092,171.533 220.420 C 172.053 218.928,171.739 218.782,171.179 220.255 M281.829 222.000 C 281.976 222.550,282.264 223.270,282.467 223.600 C 282.725 224.017,282.757 223.895,282.571 223.200 C 282.424 222.650,282.136 221.930,281.933 221.600 C 281.675 221.183,281.643 221.305,281.829 222.000 M283.029 225.200 C 283.176 225.750,283.464 226.470,283.667 226.800 C 283.925 227.217,283.957 227.095,283.771 226.400 C 283.624 225.850,283.336 225.130,283.133 224.800 C 282.875 224.383,282.843 224.505,283.029 225.200 M168.465 227.417 C 167.795 228.888,167.923 229.202,168.647 227.865 C 168.986 227.240,169.188 226.654,169.096 226.563 C 169.005 226.471,168.721 226.856,168.465 227.417 M232.229 230.000 C 232.376 230.550,232.664 231.270,232.867 231.600 C 233.125 232.017,233.157 231.895,232.971 231.200 C 232.824 230.650,232.536 229.930,232.333 229.600 C 232.075 229.183,232.043 229.305,232.229 230.000 M167.179 230.655 C 166.958 231.236,166.852 231.785,166.943 231.876 C 167.033 231.967,167.299 231.492,167.533 230.820 C 168.053 229.328,167.739 229.182,167.179 230.655 M285.829 232.400 C 285.976 232.950,286.264 233.670,286.467 234.000 C 286.725 234.417,286.757 234.295,286.571 233.600 C 286.424 233.050,286.136 232.330,285.933 232.000 C 285.675 231.583,285.643 231.705,285.829 232.400 M166.044 233.644 C 165.798 234.351,165.666 235.000,165.752 235.085 C 165.838 235.171,166.109 234.662,166.356 233.956 C 166.602 233.249,166.734 232.600,166.648 232.515 C 166.562 232.429,166.291 232.938,166.044 233.644 M233.429 233.200 C 233.576 233.750,233.864 234.470,234.067 234.800 C 234.325 235.217,234.357 235.095,234.171 234.400 C 234.024 233.850,233.736 233.130,233.533 232.800 C 233.275 232.383,233.243 232.505,233.429 233.200 M288.229 238.800 C 288.376 239.350,288.664 240.070,288.867 240.400 C 289.125 240.817,289.157 240.695,288.971 240.000 C 288.824 239.450,288.536 238.730,288.333 238.400 C 288.075 237.983,288.043 238.105,288.229 238.800 M163.179 241.055 C 162.958 241.636,162.852 242.185,162.943 242.276 C 163.033 242.367,163.299 241.892,163.533 241.220 C 164.053 239.728,163.739 239.582,163.179 241.055 M289.630 242.400 C 289.628 242.976,290.757 245.266,290.786 244.746 C 290.794 244.606,290.537 243.886,290.216 243.146 C 289.894 242.406,289.631 242.070,289.630 242.400 M109.665 243.417 C 108.995 244.888,109.123 245.202,109.847 243.865 C 110.186 243.240,110.388 242.654,110.296 242.563 C 110.205 242.471,109.921 242.856,109.665 243.417 M237.214 242.854 C 237.206 242.994,237.463 243.714,237.784 244.454 C 238.106 245.194,238.369 245.530,238.370 245.200 C 238.372 244.624,237.243 242.334,237.214 242.854 M161.979 244.255 C 161.758 244.836,161.652 245.385,161.743 245.476 C 161.833 245.567,162.099 245.092,162.333 244.420 C 162.853 242.928,162.539 242.782,161.979 244.255 M239.029 247.600 C 239.176 248.150,239.464 248.870,239.667 249.200 C 239.925 249.617,239.957 249.495,239.771 248.800 C 239.624 248.250,239.336 247.530,239.133 247.200 C 238.875 246.783,238.843 246.905,239.029 247.600 M292.229 249.200 C 292.376 249.750,292.664 250.470,292.867 250.800 C 293.125 251.217,293.157 251.095,292.971 250.400 C 292.824 249.850,292.536 249.130,292.333 248.800 C 292.075 248.383,292.043 248.505,292.229 249.200 M106.867 250.780 C 106.633 251.451,106.527 252.000,106.631 252.000 C 106.901 252.000,107.656 249.922,107.457 249.724 C 107.367 249.633,107.101 250.108,106.867 250.780 " stroke="none" fill="#848484" fill-rule="evenodd"></path></g></svg>